%TF.GenerationSoftware,KiCad,Pcbnew,(5.1.8)-1*%
%TF.CreationDate,2021-05-26T19:32:10+02:00*%
%TF.ProjectId,powerpack,706f7765-7270-4616-936b-2e6b69636164,rev?*%
%TF.SameCoordinates,Original*%
%TF.FileFunction,Copper,L1,Top*%
%TF.FilePolarity,Positive*%
%FSLAX46Y46*%
G04 Gerber Fmt 4.6, Leading zero omitted, Abs format (unit mm)*
G04 Created by KiCad (PCBNEW (5.1.8)-1) date 2021-05-26 19:32:10*
%MOMM*%
%LPD*%
G01*
G04 APERTURE LIST*
%TA.AperFunction,SMDPad,CuDef*%
%ADD10R,2.500000X2.500000*%
%TD*%
%TA.AperFunction,ComponentPad*%
%ADD11C,3.000000*%
%TD*%
%TA.AperFunction,SMDPad,CuDef*%
%ADD12R,1.380000X0.600000*%
%TD*%
%TA.AperFunction,Conductor*%
%ADD13C,0.250000*%
%TD*%
%TA.AperFunction,Conductor*%
%ADD14C,0.254000*%
%TD*%
%TA.AperFunction,Conductor*%
%ADD15C,0.100000*%
%TD*%
G04 APERTURE END LIST*
%TO.P,R2,2*%
%TO.N,GND*%
%TA.AperFunction,SMDPad,CuDef*%
G36*
G01*
X175075001Y-44080001D02*
X175075001Y-42830001D01*
G75*
G02*
X175325001Y-42580001I250000J0D01*
G01*
X176125001Y-42580001D01*
G75*
G02*
X176375001Y-42830001I0J-250000D01*
G01*
X176375001Y-44080001D01*
G75*
G02*
X176125001Y-44330001I-250000J0D01*
G01*
X175325001Y-44330001D01*
G75*
G02*
X175075001Y-44080001I0J250000D01*
G01*
G37*
%TD.AperFunction*%
%TO.P,R2,1*%
%TO.N,Net-(J4-Pad1)*%
%TA.AperFunction,SMDPad,CuDef*%
G36*
G01*
X171975001Y-44080001D02*
X171975001Y-42830001D01*
G75*
G02*
X172225001Y-42580001I250000J0D01*
G01*
X173025001Y-42580001D01*
G75*
G02*
X173275001Y-42830001I0J-250000D01*
G01*
X173275001Y-44080001D01*
G75*
G02*
X173025001Y-44330001I-250000J0D01*
G01*
X172225001Y-44330001D01*
G75*
G02*
X171975001Y-44080001I0J250000D01*
G01*
G37*
%TD.AperFunction*%
%TD*%
%TO.P,R1,2*%
%TO.N,Net-(J4-Pad1)*%
%TA.AperFunction,SMDPad,CuDef*%
G36*
G01*
X175075001Y-40790001D02*
X175075001Y-39540001D01*
G75*
G02*
X175325001Y-39290001I250000J0D01*
G01*
X176125001Y-39290001D01*
G75*
G02*
X176375001Y-39540001I0J-250000D01*
G01*
X176375001Y-40790001D01*
G75*
G02*
X176125001Y-41040001I-250000J0D01*
G01*
X175325001Y-41040001D01*
G75*
G02*
X175075001Y-40790001I0J250000D01*
G01*
G37*
%TD.AperFunction*%
%TO.P,R1,1*%
%TO.N,VCC*%
%TA.AperFunction,SMDPad,CuDef*%
G36*
G01*
X171975001Y-40790001D02*
X171975001Y-39540001D01*
G75*
G02*
X172225001Y-39290001I250000J0D01*
G01*
X173025001Y-39290001D01*
G75*
G02*
X173275001Y-39540001I0J-250000D01*
G01*
X173275001Y-40790001D01*
G75*
G02*
X173025001Y-41040001I-250000J0D01*
G01*
X172225001Y-41040001D01*
G75*
G02*
X171975001Y-40790001I0J250000D01*
G01*
G37*
%TD.AperFunction*%
%TD*%
D10*
%TO.P,J4,1*%
%TO.N,Net-(J4-Pad1)*%
X168950000Y-41660000D03*
%TD*%
D11*
%TO.P,J2.1,1*%
%TO.N,+3V3*%
X174942500Y-21907500D03*
%TD*%
D12*
%TO.P,U1,3*%
%TO.N,VCC*%
X173510800Y-27127200D03*
%TO.P,U1,2*%
%TO.N,+3V3*%
X175840800Y-26177200D03*
%TO.P,U1,1*%
%TO.N,GND*%
X175840800Y-28077200D03*
%TD*%
%TO.P,C1,2*%
%TO.N,GND*%
%TA.AperFunction,SMDPad,CuDef*%
G36*
G01*
X180349997Y-43876800D02*
X181650003Y-43876800D01*
G75*
G02*
X181900000Y-44126797I0J-249997D01*
G01*
X181900000Y-44951803D01*
G75*
G02*
X181650003Y-45201800I-249997J0D01*
G01*
X180349997Y-45201800D01*
G75*
G02*
X180100000Y-44951803I0J249997D01*
G01*
X180100000Y-44126797D01*
G75*
G02*
X180349997Y-43876800I249997J0D01*
G01*
G37*
%TD.AperFunction*%
%TO.P,C1,1*%
%TO.N,VCC*%
%TA.AperFunction,SMDPad,CuDef*%
G36*
G01*
X180349997Y-40751800D02*
X181650003Y-40751800D01*
G75*
G02*
X181900000Y-41001797I0J-249997D01*
G01*
X181900000Y-41826803D01*
G75*
G02*
X181650003Y-42076800I-249997J0D01*
G01*
X180349997Y-42076800D01*
G75*
G02*
X180100000Y-41826803I0J249997D01*
G01*
X180100000Y-41001797D01*
G75*
G02*
X180349997Y-40751800I249997J0D01*
G01*
G37*
%TD.AperFunction*%
%TD*%
%TO.P,C2,1*%
%TO.N,+3V3*%
%TA.AperFunction,SMDPad,CuDef*%
G36*
G01*
X180349997Y-25156200D02*
X181650003Y-25156200D01*
G75*
G02*
X181900000Y-25406197I0J-249997D01*
G01*
X181900000Y-26231203D01*
G75*
G02*
X181650003Y-26481200I-249997J0D01*
G01*
X180349997Y-26481200D01*
G75*
G02*
X180100000Y-26231203I0J249997D01*
G01*
X180100000Y-25406197D01*
G75*
G02*
X180349997Y-25156200I249997J0D01*
G01*
G37*
%TD.AperFunction*%
%TO.P,C2,2*%
%TO.N,GND*%
%TA.AperFunction,SMDPad,CuDef*%
G36*
G01*
X180349997Y-28281200D02*
X181650003Y-28281200D01*
G75*
G02*
X181900000Y-28531197I0J-249997D01*
G01*
X181900000Y-29356203D01*
G75*
G02*
X181650003Y-29606200I-249997J0D01*
G01*
X180349997Y-29606200D01*
G75*
G02*
X180100000Y-29356203I0J249997D01*
G01*
X180100000Y-28531197D01*
G75*
G02*
X180349997Y-28281200I249997J0D01*
G01*
G37*
%TD.AperFunction*%
%TD*%
%TO.P,J1,1*%
%TO.N,VCC*%
%TA.AperFunction,SMDPad,CuDef*%
G36*
G01*
X181692400Y-33845600D02*
X182642400Y-33845600D01*
G75*
G02*
X182792400Y-33995600I0J-150000D01*
G01*
X182792400Y-34295600D01*
G75*
G02*
X182642400Y-34445600I-150000J0D01*
G01*
X181692400Y-34445600D01*
G75*
G02*
X181542400Y-34295600I0J150000D01*
G01*
X181542400Y-33995600D01*
G75*
G02*
X181692400Y-33845600I150000J0D01*
G01*
G37*
%TD.AperFunction*%
%TO.P,J1,2*%
%TO.N,GND*%
%TA.AperFunction,SMDPad,CuDef*%
G36*
G01*
X181692400Y-34845600D02*
X182642400Y-34845600D01*
G75*
G02*
X182792400Y-34995600I0J-150000D01*
G01*
X182792400Y-35295600D01*
G75*
G02*
X182642400Y-35445600I-150000J0D01*
G01*
X181692400Y-35445600D01*
G75*
G02*
X181542400Y-35295600I0J150000D01*
G01*
X181542400Y-34995600D01*
G75*
G02*
X181692400Y-34845600I150000J0D01*
G01*
G37*
%TD.AperFunction*%
%TO.P,J1,MP*%
%TO.N,N/C*%
%TA.AperFunction,SMDPad,CuDef*%
G36*
G01*
X178417400Y-32245600D02*
X179667400Y-32245600D01*
G75*
G02*
X179892400Y-32470600I0J-225000D01*
G01*
X179892400Y-32920600D01*
G75*
G02*
X179667400Y-33145600I-225000J0D01*
G01*
X178417400Y-33145600D01*
G75*
G02*
X178192400Y-32920600I0J225000D01*
G01*
X178192400Y-32470600D01*
G75*
G02*
X178417400Y-32245600I225000J0D01*
G01*
G37*
%TD.AperFunction*%
%TA.AperFunction,SMDPad,CuDef*%
G36*
G01*
X178417400Y-36145600D02*
X179667400Y-36145600D01*
G75*
G02*
X179892400Y-36370600I0J-225000D01*
G01*
X179892400Y-36820600D01*
G75*
G02*
X179667400Y-37045600I-225000J0D01*
G01*
X178417400Y-37045600D01*
G75*
G02*
X178192400Y-36820600I0J225000D01*
G01*
X178192400Y-36370600D01*
G75*
G02*
X178417400Y-36145600I225000J0D01*
G01*
G37*
%TD.AperFunction*%
%TD*%
D10*
%TO.P,J3.2,1*%
%TO.N,GND*%
X174294800Y-34569400D03*
%TD*%
%TO.P,J3.1,1*%
%TO.N,VCC*%
X169265600Y-34569400D03*
%TD*%
D11*
%TO.P,J2.2,1*%
%TO.N,GND*%
X174942500Y-48895000D03*
%TD*%
D13*
%TO.N,GND*%
X180225300Y-28067000D02*
X181102000Y-28943700D01*
X175869600Y-28067000D02*
X180225300Y-28067000D01*
X181102000Y-28943700D02*
X181673900Y-28943700D01*
X174942500Y-48452600D02*
X174942500Y-49415700D01*
X181870632Y-35145600D02*
X182167400Y-35145600D01*
X181102000Y-34376968D02*
X181870632Y-35145600D01*
X181102000Y-28943700D02*
X181102000Y-34376968D01*
X175869600Y-32994600D02*
X174294800Y-34569400D01*
X175869600Y-28067000D02*
X175869600Y-32994600D01*
X182467400Y-43250100D02*
X181178200Y-44539300D01*
X182467400Y-35445600D02*
X182467400Y-43250100D01*
X182167400Y-35145600D02*
X182467400Y-35445600D01*
X174942500Y-48682156D02*
X174942500Y-49415700D01*
X179085356Y-44539300D02*
X174942500Y-48682156D01*
X181178200Y-44539300D02*
X179085356Y-44539300D01*
X179915701Y-43455001D02*
X181000000Y-44539300D01*
X175725001Y-43455001D02*
X179915701Y-43455001D01*
X175725001Y-48112499D02*
X174942500Y-48895000D01*
%TO.N,VCC*%
X173482000Y-27127200D02*
X173151800Y-27127200D01*
X181870632Y-34145600D02*
X182167400Y-34145600D01*
X181161190Y-27127200D02*
X173482000Y-27127200D01*
X182467400Y-28433410D02*
X181161190Y-27127200D01*
X182467400Y-33845600D02*
X182467400Y-28433410D01*
X182167400Y-34145600D02*
X182467400Y-33845600D01*
X169265600Y-31372400D02*
X173510800Y-27127200D01*
X169265600Y-34569400D02*
X169265600Y-31372400D01*
X172161191Y-38964991D02*
X178550691Y-38964991D01*
X169265600Y-36069400D02*
X172161191Y-38964991D01*
X178550691Y-38964991D02*
X181000000Y-41414300D01*
X169265600Y-34569400D02*
X169265600Y-36069400D01*
X172161191Y-39701191D02*
X172625001Y-40165001D01*
X172161191Y-38964991D02*
X172161191Y-39701191D01*
%TO.N,+3V3*%
X174942500Y-25260300D02*
X175869600Y-26187400D01*
X174942500Y-21488400D02*
X174942500Y-25260300D01*
X180733300Y-26187400D02*
X181102000Y-25818700D01*
X175869600Y-26187400D02*
X180733300Y-26187400D01*
%TO.N,Net-(J4-Pad1)*%
X175725001Y-40355001D02*
X172625001Y-43455001D01*
X175725001Y-40165001D02*
X175725001Y-40355001D01*
X170745001Y-43455001D02*
X168950000Y-41660000D01*
X172625001Y-43455001D02*
X170745001Y-43455001D01*
%TD*%
D14*
%TO.N,GND*%
X179569463Y-27926706D02*
X179510498Y-28037020D01*
X179474188Y-28156718D01*
X179461928Y-28281200D01*
X179465000Y-28657950D01*
X179623750Y-28816700D01*
X180873000Y-28816700D01*
X180873000Y-28796700D01*
X181127000Y-28796700D01*
X181127000Y-28816700D01*
X181147000Y-28816700D01*
X181147000Y-29070700D01*
X181127000Y-29070700D01*
X181127000Y-30082450D01*
X181285750Y-30241200D01*
X181707401Y-30243309D01*
X181707400Y-33207528D01*
X181692400Y-33207528D01*
X181538655Y-33222671D01*
X181390818Y-33267516D01*
X181254571Y-33340342D01*
X181135149Y-33438349D01*
X181037142Y-33557771D01*
X180964316Y-33694018D01*
X180919471Y-33841855D01*
X180904328Y-33995600D01*
X180904328Y-34295600D01*
X180919471Y-34449345D01*
X180961002Y-34586258D01*
X180952898Y-34601420D01*
X180916588Y-34721118D01*
X180904328Y-34845600D01*
X180907400Y-34859850D01*
X181066150Y-35018600D01*
X181381307Y-35018600D01*
X181390818Y-35023684D01*
X181538655Y-35068529D01*
X181692400Y-35083672D01*
X182314400Y-35083672D01*
X182314400Y-35272600D01*
X182294400Y-35272600D01*
X182294400Y-35921850D01*
X182453150Y-36080600D01*
X182703000Y-36082862D01*
X182703000Y-46254200D01*
X177249447Y-46254200D01*
X177215800Y-46250886D01*
X177182153Y-46254200D01*
X177081517Y-46264112D01*
X176952394Y-46303281D01*
X176833393Y-46366888D01*
X176729089Y-46452489D01*
X176643488Y-46556793D01*
X176579881Y-46675794D01*
X176540712Y-46804917D01*
X176527486Y-46939200D01*
X176530801Y-46972857D01*
X176530801Y-47630734D01*
X176434153Y-47582952D01*
X175122105Y-48895000D01*
X176434153Y-50207048D01*
X176530800Y-50159267D01*
X176530800Y-51207200D01*
X173278000Y-51207200D01*
X173278000Y-50386653D01*
X173630452Y-50386653D01*
X173786462Y-50702214D01*
X174161245Y-50893020D01*
X174566051Y-51007044D01*
X174985324Y-51039902D01*
X175402951Y-50990334D01*
X175802883Y-50860243D01*
X176098538Y-50702214D01*
X176254548Y-50386653D01*
X174942500Y-49074605D01*
X173630452Y-50386653D01*
X173278000Y-50386653D01*
X173278000Y-50121594D01*
X173450847Y-50207048D01*
X174762895Y-48895000D01*
X173450847Y-47582952D01*
X173278000Y-47668406D01*
X173278000Y-47403347D01*
X173630452Y-47403347D01*
X174942500Y-48715395D01*
X176254548Y-47403347D01*
X176098538Y-47087786D01*
X175723755Y-46896980D01*
X175318949Y-46782956D01*
X174899676Y-46750098D01*
X174482049Y-46799666D01*
X174082117Y-46929757D01*
X173786462Y-47087786D01*
X173630452Y-47403347D01*
X173278000Y-47403347D01*
X173278000Y-46972846D01*
X173281314Y-46939200D01*
X173268088Y-46804917D01*
X173228919Y-46675794D01*
X173165312Y-46556793D01*
X173079711Y-46452489D01*
X172975407Y-46366888D01*
X172856406Y-46303281D01*
X172727283Y-46264112D01*
X172626647Y-46254200D01*
X172593000Y-46250886D01*
X172559353Y-46254200D01*
X167182000Y-46254200D01*
X167182000Y-45201800D01*
X179461928Y-45201800D01*
X179474188Y-45326282D01*
X179510498Y-45445980D01*
X179569463Y-45556294D01*
X179648815Y-45652985D01*
X179745506Y-45732337D01*
X179855820Y-45791302D01*
X179975518Y-45827612D01*
X180100000Y-45839872D01*
X180714250Y-45836800D01*
X180873000Y-45678050D01*
X180873000Y-44666300D01*
X181127000Y-44666300D01*
X181127000Y-45678050D01*
X181285750Y-45836800D01*
X181900000Y-45839872D01*
X182024482Y-45827612D01*
X182144180Y-45791302D01*
X182254494Y-45732337D01*
X182351185Y-45652985D01*
X182430537Y-45556294D01*
X182489502Y-45445980D01*
X182525812Y-45326282D01*
X182538072Y-45201800D01*
X182535000Y-44825050D01*
X182376250Y-44666300D01*
X181127000Y-44666300D01*
X180873000Y-44666300D01*
X179623750Y-44666300D01*
X179465000Y-44825050D01*
X179461928Y-45201800D01*
X167182000Y-45201800D01*
X167182000Y-43279770D01*
X167248815Y-43361185D01*
X167345506Y-43440537D01*
X167455820Y-43499502D01*
X167575518Y-43535812D01*
X167700000Y-43548072D01*
X169763270Y-43548072D01*
X170181202Y-43966004D01*
X170205000Y-43995002D01*
X170320725Y-44089975D01*
X170452754Y-44160547D01*
X170596015Y-44204004D01*
X170707668Y-44215001D01*
X170707676Y-44215001D01*
X170745001Y-44218677D01*
X170782326Y-44215001D01*
X171350225Y-44215001D01*
X171353993Y-44253255D01*
X171404529Y-44419851D01*
X171486596Y-44573387D01*
X171597039Y-44707963D01*
X171731615Y-44818406D01*
X171885151Y-44900473D01*
X172051747Y-44951009D01*
X172225001Y-44968073D01*
X173025001Y-44968073D01*
X173198255Y-44951009D01*
X173364851Y-44900473D01*
X173518387Y-44818406D01*
X173652963Y-44707963D01*
X173763406Y-44573387D01*
X173845473Y-44419851D01*
X173872728Y-44330001D01*
X174436929Y-44330001D01*
X174449189Y-44454483D01*
X174485499Y-44574181D01*
X174544464Y-44684495D01*
X174623816Y-44781186D01*
X174720507Y-44860538D01*
X174830821Y-44919503D01*
X174950519Y-44955813D01*
X175075001Y-44968073D01*
X175439251Y-44965001D01*
X175598001Y-44806251D01*
X175598001Y-43582001D01*
X175852001Y-43582001D01*
X175852001Y-44806251D01*
X176010751Y-44965001D01*
X176375001Y-44968073D01*
X176499483Y-44955813D01*
X176619181Y-44919503D01*
X176729495Y-44860538D01*
X176826186Y-44781186D01*
X176905538Y-44684495D01*
X176964503Y-44574181D01*
X177000813Y-44454483D01*
X177013073Y-44330001D01*
X177010711Y-43876800D01*
X179461928Y-43876800D01*
X179465000Y-44253550D01*
X179623750Y-44412300D01*
X180873000Y-44412300D01*
X180873000Y-43400550D01*
X181127000Y-43400550D01*
X181127000Y-44412300D01*
X182376250Y-44412300D01*
X182535000Y-44253550D01*
X182538072Y-43876800D01*
X182525812Y-43752318D01*
X182489502Y-43632620D01*
X182430537Y-43522306D01*
X182351185Y-43425615D01*
X182254494Y-43346263D01*
X182144180Y-43287298D01*
X182024482Y-43250988D01*
X181900000Y-43238728D01*
X181285750Y-43241800D01*
X181127000Y-43400550D01*
X180873000Y-43400550D01*
X180714250Y-43241800D01*
X180100000Y-43238728D01*
X179975518Y-43250988D01*
X179855820Y-43287298D01*
X179745506Y-43346263D01*
X179648815Y-43425615D01*
X179569463Y-43522306D01*
X179510498Y-43632620D01*
X179474188Y-43752318D01*
X179461928Y-43876800D01*
X177010711Y-43876800D01*
X177010001Y-43740751D01*
X176851251Y-43582001D01*
X175852001Y-43582001D01*
X175598001Y-43582001D01*
X174598751Y-43582001D01*
X174440001Y-43740751D01*
X174436929Y-44330001D01*
X173872728Y-44330001D01*
X173896009Y-44253255D01*
X173913073Y-44080001D01*
X173913073Y-43241730D01*
X174437644Y-42717159D01*
X174440001Y-43169251D01*
X174598751Y-43328001D01*
X175598001Y-43328001D01*
X175598001Y-42103751D01*
X175852001Y-42103751D01*
X175852001Y-43328001D01*
X176851251Y-43328001D01*
X177010001Y-43169251D01*
X177013073Y-42580001D01*
X177000813Y-42455519D01*
X176964503Y-42335821D01*
X176905538Y-42225507D01*
X176826186Y-42128816D01*
X176729495Y-42049464D01*
X176619181Y-41990499D01*
X176499483Y-41954189D01*
X176375001Y-41941929D01*
X176010751Y-41945001D01*
X175852001Y-42103751D01*
X175598001Y-42103751D01*
X175439251Y-41945001D01*
X175211722Y-41943082D01*
X175476731Y-41678073D01*
X176125001Y-41678073D01*
X176298255Y-41661009D01*
X176464851Y-41610473D01*
X176618387Y-41528406D01*
X176752963Y-41417963D01*
X176863406Y-41283387D01*
X176945473Y-41129851D01*
X176996009Y-40963255D01*
X177013073Y-40790001D01*
X177013073Y-39724991D01*
X178235890Y-39724991D01*
X179466480Y-40955581D01*
X179461928Y-41001797D01*
X179461928Y-41826803D01*
X179478992Y-42000057D01*
X179529528Y-42166652D01*
X179611595Y-42320188D01*
X179722037Y-42454763D01*
X179856612Y-42565205D01*
X180010148Y-42647272D01*
X180176743Y-42697808D01*
X180349997Y-42714872D01*
X181650003Y-42714872D01*
X181823257Y-42697808D01*
X181989852Y-42647272D01*
X182143388Y-42565205D01*
X182277963Y-42454763D01*
X182388405Y-42320188D01*
X182470472Y-42166652D01*
X182521008Y-42000057D01*
X182538072Y-41826803D01*
X182538072Y-41001797D01*
X182521008Y-40828543D01*
X182470472Y-40661948D01*
X182388405Y-40508412D01*
X182277963Y-40373837D01*
X182143388Y-40263395D01*
X181989852Y-40181328D01*
X181823257Y-40130792D01*
X181650003Y-40113728D01*
X180774230Y-40113728D01*
X179114495Y-38453994D01*
X179090692Y-38424990D01*
X178974967Y-38330017D01*
X178842938Y-38259445D01*
X178699677Y-38215988D01*
X178588024Y-38204991D01*
X178588013Y-38204991D01*
X178550691Y-38201315D01*
X178513369Y-38204991D01*
X172475993Y-38204991D01*
X170698494Y-36427493D01*
X170759780Y-36408902D01*
X170870094Y-36349937D01*
X170966785Y-36270585D01*
X171046137Y-36173894D01*
X171105102Y-36063580D01*
X171141412Y-35943882D01*
X171153672Y-35819400D01*
X172406728Y-35819400D01*
X172418988Y-35943882D01*
X172455298Y-36063580D01*
X172514263Y-36173894D01*
X172593615Y-36270585D01*
X172690306Y-36349937D01*
X172800620Y-36408902D01*
X172920318Y-36445212D01*
X173044800Y-36457472D01*
X174009050Y-36454400D01*
X174167800Y-36295650D01*
X174167800Y-34696400D01*
X174421800Y-34696400D01*
X174421800Y-36295650D01*
X174580550Y-36454400D01*
X175544800Y-36457472D01*
X175669282Y-36445212D01*
X175788980Y-36408902D01*
X175860636Y-36370600D01*
X177554328Y-36370600D01*
X177554328Y-36820600D01*
X177570912Y-36988977D01*
X177620025Y-37150883D01*
X177699782Y-37300097D01*
X177807116Y-37430884D01*
X177937903Y-37538218D01*
X178087117Y-37617975D01*
X178249023Y-37667088D01*
X178417400Y-37683672D01*
X179667400Y-37683672D01*
X179835777Y-37667088D01*
X179997683Y-37617975D01*
X180146897Y-37538218D01*
X180277684Y-37430884D01*
X180385018Y-37300097D01*
X180464775Y-37150883D01*
X180513888Y-36988977D01*
X180530472Y-36820600D01*
X180530472Y-36370600D01*
X180513888Y-36202223D01*
X180464775Y-36040317D01*
X180385018Y-35891103D01*
X180277684Y-35760316D01*
X180146897Y-35652982D01*
X179997683Y-35573225D01*
X179835777Y-35524112D01*
X179667400Y-35507528D01*
X178417400Y-35507528D01*
X178249023Y-35524112D01*
X178087117Y-35573225D01*
X177937903Y-35652982D01*
X177807116Y-35760316D01*
X177699782Y-35891103D01*
X177620025Y-36040317D01*
X177570912Y-36202223D01*
X177554328Y-36370600D01*
X175860636Y-36370600D01*
X175899294Y-36349937D01*
X175995985Y-36270585D01*
X176075337Y-36173894D01*
X176134302Y-36063580D01*
X176170612Y-35943882D01*
X176182872Y-35819400D01*
X176181682Y-35445600D01*
X180904328Y-35445600D01*
X180916588Y-35570082D01*
X180952898Y-35689780D01*
X181011863Y-35800094D01*
X181091215Y-35896785D01*
X181187906Y-35976137D01*
X181298220Y-36035102D01*
X181417918Y-36071412D01*
X181542400Y-36083672D01*
X181881650Y-36080600D01*
X182040400Y-35921850D01*
X182040400Y-35272600D01*
X181066150Y-35272600D01*
X180907400Y-35431350D01*
X180904328Y-35445600D01*
X176181682Y-35445600D01*
X176179800Y-34855150D01*
X176021050Y-34696400D01*
X174421800Y-34696400D01*
X174167800Y-34696400D01*
X172568550Y-34696400D01*
X172409800Y-34855150D01*
X172406728Y-35819400D01*
X171153672Y-35819400D01*
X171153672Y-33319400D01*
X172406728Y-33319400D01*
X172409800Y-34283650D01*
X172568550Y-34442400D01*
X174167800Y-34442400D01*
X174167800Y-32843150D01*
X174421800Y-32843150D01*
X174421800Y-34442400D01*
X176021050Y-34442400D01*
X176179800Y-34283650D01*
X176182872Y-33319400D01*
X176170612Y-33194918D01*
X176134302Y-33075220D01*
X176075337Y-32964906D01*
X175995985Y-32868215D01*
X175899294Y-32788863D01*
X175788980Y-32729898D01*
X175669282Y-32693588D01*
X175544800Y-32681328D01*
X174580550Y-32684400D01*
X174421800Y-32843150D01*
X174167800Y-32843150D01*
X174009050Y-32684400D01*
X173044800Y-32681328D01*
X172920318Y-32693588D01*
X172800620Y-32729898D01*
X172690306Y-32788863D01*
X172593615Y-32868215D01*
X172514263Y-32964906D01*
X172455298Y-33075220D01*
X172418988Y-33194918D01*
X172406728Y-33319400D01*
X171153672Y-33319400D01*
X171141412Y-33194918D01*
X171105102Y-33075220D01*
X171046137Y-32964906D01*
X170966785Y-32868215D01*
X170870094Y-32788863D01*
X170759780Y-32729898D01*
X170640082Y-32693588D01*
X170515600Y-32681328D01*
X170025600Y-32681328D01*
X170025600Y-32470600D01*
X177554328Y-32470600D01*
X177554328Y-32920600D01*
X177570912Y-33088977D01*
X177620025Y-33250883D01*
X177699782Y-33400097D01*
X177807116Y-33530884D01*
X177937903Y-33638218D01*
X178087117Y-33717975D01*
X178249023Y-33767088D01*
X178417400Y-33783672D01*
X179667400Y-33783672D01*
X179835777Y-33767088D01*
X179997683Y-33717975D01*
X180146897Y-33638218D01*
X180277684Y-33530884D01*
X180385018Y-33400097D01*
X180464775Y-33250883D01*
X180513888Y-33088977D01*
X180530472Y-32920600D01*
X180530472Y-32470600D01*
X180513888Y-32302223D01*
X180464775Y-32140317D01*
X180385018Y-31991103D01*
X180277684Y-31860316D01*
X180146897Y-31752982D01*
X179997683Y-31673225D01*
X179835777Y-31624112D01*
X179667400Y-31607528D01*
X178417400Y-31607528D01*
X178249023Y-31624112D01*
X178087117Y-31673225D01*
X177937903Y-31752982D01*
X177807116Y-31860316D01*
X177699782Y-31991103D01*
X177620025Y-32140317D01*
X177570912Y-32302223D01*
X177554328Y-32470600D01*
X170025600Y-32470600D01*
X170025600Y-31687201D01*
X172106601Y-29606200D01*
X179461928Y-29606200D01*
X179474188Y-29730682D01*
X179510498Y-29850380D01*
X179569463Y-29960694D01*
X179648815Y-30057385D01*
X179745506Y-30136737D01*
X179855820Y-30195702D01*
X179975518Y-30232012D01*
X180100000Y-30244272D01*
X180714250Y-30241200D01*
X180873000Y-30082450D01*
X180873000Y-29070700D01*
X179623750Y-29070700D01*
X179465000Y-29229450D01*
X179461928Y-29606200D01*
X172106601Y-29606200D01*
X173335602Y-28377200D01*
X174512728Y-28377200D01*
X174524988Y-28501682D01*
X174561298Y-28621380D01*
X174620263Y-28731694D01*
X174699615Y-28828385D01*
X174796306Y-28907737D01*
X174906620Y-28966702D01*
X175026318Y-29003012D01*
X175150800Y-29015272D01*
X175555050Y-29012200D01*
X175713800Y-28853450D01*
X175713800Y-28204200D01*
X175967800Y-28204200D01*
X175967800Y-28853450D01*
X176126550Y-29012200D01*
X176530800Y-29015272D01*
X176655282Y-29003012D01*
X176774980Y-28966702D01*
X176885294Y-28907737D01*
X176981985Y-28828385D01*
X177061337Y-28731694D01*
X177120302Y-28621380D01*
X177156612Y-28501682D01*
X177168872Y-28377200D01*
X177165800Y-28362950D01*
X177007050Y-28204200D01*
X175967800Y-28204200D01*
X175713800Y-28204200D01*
X174674550Y-28204200D01*
X174515800Y-28362950D01*
X174512728Y-28377200D01*
X173335602Y-28377200D01*
X173647531Y-28065272D01*
X174200800Y-28065272D01*
X174325282Y-28053012D01*
X174444980Y-28016702D01*
X174555294Y-27957737D01*
X174624935Y-27900585D01*
X174674550Y-27950200D01*
X175713800Y-27950200D01*
X175713800Y-27930200D01*
X175967800Y-27930200D01*
X175967800Y-27950200D01*
X177007050Y-27950200D01*
X177070050Y-27887200D01*
X179601885Y-27887200D01*
X179569463Y-27926706D01*
%TA.AperFunction,Conductor*%
D15*
G36*
X179569463Y-27926706D02*
G01*
X179510498Y-28037020D01*
X179474188Y-28156718D01*
X179461928Y-28281200D01*
X179465000Y-28657950D01*
X179623750Y-28816700D01*
X180873000Y-28816700D01*
X180873000Y-28796700D01*
X181127000Y-28796700D01*
X181127000Y-28816700D01*
X181147000Y-28816700D01*
X181147000Y-29070700D01*
X181127000Y-29070700D01*
X181127000Y-30082450D01*
X181285750Y-30241200D01*
X181707401Y-30243309D01*
X181707400Y-33207528D01*
X181692400Y-33207528D01*
X181538655Y-33222671D01*
X181390818Y-33267516D01*
X181254571Y-33340342D01*
X181135149Y-33438349D01*
X181037142Y-33557771D01*
X180964316Y-33694018D01*
X180919471Y-33841855D01*
X180904328Y-33995600D01*
X180904328Y-34295600D01*
X180919471Y-34449345D01*
X180961002Y-34586258D01*
X180952898Y-34601420D01*
X180916588Y-34721118D01*
X180904328Y-34845600D01*
X180907400Y-34859850D01*
X181066150Y-35018600D01*
X181381307Y-35018600D01*
X181390818Y-35023684D01*
X181538655Y-35068529D01*
X181692400Y-35083672D01*
X182314400Y-35083672D01*
X182314400Y-35272600D01*
X182294400Y-35272600D01*
X182294400Y-35921850D01*
X182453150Y-36080600D01*
X182703000Y-36082862D01*
X182703000Y-46254200D01*
X177249447Y-46254200D01*
X177215800Y-46250886D01*
X177182153Y-46254200D01*
X177081517Y-46264112D01*
X176952394Y-46303281D01*
X176833393Y-46366888D01*
X176729089Y-46452489D01*
X176643488Y-46556793D01*
X176579881Y-46675794D01*
X176540712Y-46804917D01*
X176527486Y-46939200D01*
X176530801Y-46972857D01*
X176530801Y-47630734D01*
X176434153Y-47582952D01*
X175122105Y-48895000D01*
X176434153Y-50207048D01*
X176530800Y-50159267D01*
X176530800Y-51207200D01*
X173278000Y-51207200D01*
X173278000Y-50386653D01*
X173630452Y-50386653D01*
X173786462Y-50702214D01*
X174161245Y-50893020D01*
X174566051Y-51007044D01*
X174985324Y-51039902D01*
X175402951Y-50990334D01*
X175802883Y-50860243D01*
X176098538Y-50702214D01*
X176254548Y-50386653D01*
X174942500Y-49074605D01*
X173630452Y-50386653D01*
X173278000Y-50386653D01*
X173278000Y-50121594D01*
X173450847Y-50207048D01*
X174762895Y-48895000D01*
X173450847Y-47582952D01*
X173278000Y-47668406D01*
X173278000Y-47403347D01*
X173630452Y-47403347D01*
X174942500Y-48715395D01*
X176254548Y-47403347D01*
X176098538Y-47087786D01*
X175723755Y-46896980D01*
X175318949Y-46782956D01*
X174899676Y-46750098D01*
X174482049Y-46799666D01*
X174082117Y-46929757D01*
X173786462Y-47087786D01*
X173630452Y-47403347D01*
X173278000Y-47403347D01*
X173278000Y-46972846D01*
X173281314Y-46939200D01*
X173268088Y-46804917D01*
X173228919Y-46675794D01*
X173165312Y-46556793D01*
X173079711Y-46452489D01*
X172975407Y-46366888D01*
X172856406Y-46303281D01*
X172727283Y-46264112D01*
X172626647Y-46254200D01*
X172593000Y-46250886D01*
X172559353Y-46254200D01*
X167182000Y-46254200D01*
X167182000Y-45201800D01*
X179461928Y-45201800D01*
X179474188Y-45326282D01*
X179510498Y-45445980D01*
X179569463Y-45556294D01*
X179648815Y-45652985D01*
X179745506Y-45732337D01*
X179855820Y-45791302D01*
X179975518Y-45827612D01*
X180100000Y-45839872D01*
X180714250Y-45836800D01*
X180873000Y-45678050D01*
X180873000Y-44666300D01*
X181127000Y-44666300D01*
X181127000Y-45678050D01*
X181285750Y-45836800D01*
X181900000Y-45839872D01*
X182024482Y-45827612D01*
X182144180Y-45791302D01*
X182254494Y-45732337D01*
X182351185Y-45652985D01*
X182430537Y-45556294D01*
X182489502Y-45445980D01*
X182525812Y-45326282D01*
X182538072Y-45201800D01*
X182535000Y-44825050D01*
X182376250Y-44666300D01*
X181127000Y-44666300D01*
X180873000Y-44666300D01*
X179623750Y-44666300D01*
X179465000Y-44825050D01*
X179461928Y-45201800D01*
X167182000Y-45201800D01*
X167182000Y-43279770D01*
X167248815Y-43361185D01*
X167345506Y-43440537D01*
X167455820Y-43499502D01*
X167575518Y-43535812D01*
X167700000Y-43548072D01*
X169763270Y-43548072D01*
X170181202Y-43966004D01*
X170205000Y-43995002D01*
X170320725Y-44089975D01*
X170452754Y-44160547D01*
X170596015Y-44204004D01*
X170707668Y-44215001D01*
X170707676Y-44215001D01*
X170745001Y-44218677D01*
X170782326Y-44215001D01*
X171350225Y-44215001D01*
X171353993Y-44253255D01*
X171404529Y-44419851D01*
X171486596Y-44573387D01*
X171597039Y-44707963D01*
X171731615Y-44818406D01*
X171885151Y-44900473D01*
X172051747Y-44951009D01*
X172225001Y-44968073D01*
X173025001Y-44968073D01*
X173198255Y-44951009D01*
X173364851Y-44900473D01*
X173518387Y-44818406D01*
X173652963Y-44707963D01*
X173763406Y-44573387D01*
X173845473Y-44419851D01*
X173872728Y-44330001D01*
X174436929Y-44330001D01*
X174449189Y-44454483D01*
X174485499Y-44574181D01*
X174544464Y-44684495D01*
X174623816Y-44781186D01*
X174720507Y-44860538D01*
X174830821Y-44919503D01*
X174950519Y-44955813D01*
X175075001Y-44968073D01*
X175439251Y-44965001D01*
X175598001Y-44806251D01*
X175598001Y-43582001D01*
X175852001Y-43582001D01*
X175852001Y-44806251D01*
X176010751Y-44965001D01*
X176375001Y-44968073D01*
X176499483Y-44955813D01*
X176619181Y-44919503D01*
X176729495Y-44860538D01*
X176826186Y-44781186D01*
X176905538Y-44684495D01*
X176964503Y-44574181D01*
X177000813Y-44454483D01*
X177013073Y-44330001D01*
X177010711Y-43876800D01*
X179461928Y-43876800D01*
X179465000Y-44253550D01*
X179623750Y-44412300D01*
X180873000Y-44412300D01*
X180873000Y-43400550D01*
X181127000Y-43400550D01*
X181127000Y-44412300D01*
X182376250Y-44412300D01*
X182535000Y-44253550D01*
X182538072Y-43876800D01*
X182525812Y-43752318D01*
X182489502Y-43632620D01*
X182430537Y-43522306D01*
X182351185Y-43425615D01*
X182254494Y-43346263D01*
X182144180Y-43287298D01*
X182024482Y-43250988D01*
X181900000Y-43238728D01*
X181285750Y-43241800D01*
X181127000Y-43400550D01*
X180873000Y-43400550D01*
X180714250Y-43241800D01*
X180100000Y-43238728D01*
X179975518Y-43250988D01*
X179855820Y-43287298D01*
X179745506Y-43346263D01*
X179648815Y-43425615D01*
X179569463Y-43522306D01*
X179510498Y-43632620D01*
X179474188Y-43752318D01*
X179461928Y-43876800D01*
X177010711Y-43876800D01*
X177010001Y-43740751D01*
X176851251Y-43582001D01*
X175852001Y-43582001D01*
X175598001Y-43582001D01*
X174598751Y-43582001D01*
X174440001Y-43740751D01*
X174436929Y-44330001D01*
X173872728Y-44330001D01*
X173896009Y-44253255D01*
X173913073Y-44080001D01*
X173913073Y-43241730D01*
X174437644Y-42717159D01*
X174440001Y-43169251D01*
X174598751Y-43328001D01*
X175598001Y-43328001D01*
X175598001Y-42103751D01*
X175852001Y-42103751D01*
X175852001Y-43328001D01*
X176851251Y-43328001D01*
X177010001Y-43169251D01*
X177013073Y-42580001D01*
X177000813Y-42455519D01*
X176964503Y-42335821D01*
X176905538Y-42225507D01*
X176826186Y-42128816D01*
X176729495Y-42049464D01*
X176619181Y-41990499D01*
X176499483Y-41954189D01*
X176375001Y-41941929D01*
X176010751Y-41945001D01*
X175852001Y-42103751D01*
X175598001Y-42103751D01*
X175439251Y-41945001D01*
X175211722Y-41943082D01*
X175476731Y-41678073D01*
X176125001Y-41678073D01*
X176298255Y-41661009D01*
X176464851Y-41610473D01*
X176618387Y-41528406D01*
X176752963Y-41417963D01*
X176863406Y-41283387D01*
X176945473Y-41129851D01*
X176996009Y-40963255D01*
X177013073Y-40790001D01*
X177013073Y-39724991D01*
X178235890Y-39724991D01*
X179466480Y-40955581D01*
X179461928Y-41001797D01*
X179461928Y-41826803D01*
X179478992Y-42000057D01*
X179529528Y-42166652D01*
X179611595Y-42320188D01*
X179722037Y-42454763D01*
X179856612Y-42565205D01*
X180010148Y-42647272D01*
X180176743Y-42697808D01*
X180349997Y-42714872D01*
X181650003Y-42714872D01*
X181823257Y-42697808D01*
X181989852Y-42647272D01*
X182143388Y-42565205D01*
X182277963Y-42454763D01*
X182388405Y-42320188D01*
X182470472Y-42166652D01*
X182521008Y-42000057D01*
X182538072Y-41826803D01*
X182538072Y-41001797D01*
X182521008Y-40828543D01*
X182470472Y-40661948D01*
X182388405Y-40508412D01*
X182277963Y-40373837D01*
X182143388Y-40263395D01*
X181989852Y-40181328D01*
X181823257Y-40130792D01*
X181650003Y-40113728D01*
X180774230Y-40113728D01*
X179114495Y-38453994D01*
X179090692Y-38424990D01*
X178974967Y-38330017D01*
X178842938Y-38259445D01*
X178699677Y-38215988D01*
X178588024Y-38204991D01*
X178588013Y-38204991D01*
X178550691Y-38201315D01*
X178513369Y-38204991D01*
X172475993Y-38204991D01*
X170698494Y-36427493D01*
X170759780Y-36408902D01*
X170870094Y-36349937D01*
X170966785Y-36270585D01*
X171046137Y-36173894D01*
X171105102Y-36063580D01*
X171141412Y-35943882D01*
X171153672Y-35819400D01*
X172406728Y-35819400D01*
X172418988Y-35943882D01*
X172455298Y-36063580D01*
X172514263Y-36173894D01*
X172593615Y-36270585D01*
X172690306Y-36349937D01*
X172800620Y-36408902D01*
X172920318Y-36445212D01*
X173044800Y-36457472D01*
X174009050Y-36454400D01*
X174167800Y-36295650D01*
X174167800Y-34696400D01*
X174421800Y-34696400D01*
X174421800Y-36295650D01*
X174580550Y-36454400D01*
X175544800Y-36457472D01*
X175669282Y-36445212D01*
X175788980Y-36408902D01*
X175860636Y-36370600D01*
X177554328Y-36370600D01*
X177554328Y-36820600D01*
X177570912Y-36988977D01*
X177620025Y-37150883D01*
X177699782Y-37300097D01*
X177807116Y-37430884D01*
X177937903Y-37538218D01*
X178087117Y-37617975D01*
X178249023Y-37667088D01*
X178417400Y-37683672D01*
X179667400Y-37683672D01*
X179835777Y-37667088D01*
X179997683Y-37617975D01*
X180146897Y-37538218D01*
X180277684Y-37430884D01*
X180385018Y-37300097D01*
X180464775Y-37150883D01*
X180513888Y-36988977D01*
X180530472Y-36820600D01*
X180530472Y-36370600D01*
X180513888Y-36202223D01*
X180464775Y-36040317D01*
X180385018Y-35891103D01*
X180277684Y-35760316D01*
X180146897Y-35652982D01*
X179997683Y-35573225D01*
X179835777Y-35524112D01*
X179667400Y-35507528D01*
X178417400Y-35507528D01*
X178249023Y-35524112D01*
X178087117Y-35573225D01*
X177937903Y-35652982D01*
X177807116Y-35760316D01*
X177699782Y-35891103D01*
X177620025Y-36040317D01*
X177570912Y-36202223D01*
X177554328Y-36370600D01*
X175860636Y-36370600D01*
X175899294Y-36349937D01*
X175995985Y-36270585D01*
X176075337Y-36173894D01*
X176134302Y-36063580D01*
X176170612Y-35943882D01*
X176182872Y-35819400D01*
X176181682Y-35445600D01*
X180904328Y-35445600D01*
X180916588Y-35570082D01*
X180952898Y-35689780D01*
X181011863Y-35800094D01*
X181091215Y-35896785D01*
X181187906Y-35976137D01*
X181298220Y-36035102D01*
X181417918Y-36071412D01*
X181542400Y-36083672D01*
X181881650Y-36080600D01*
X182040400Y-35921850D01*
X182040400Y-35272600D01*
X181066150Y-35272600D01*
X180907400Y-35431350D01*
X180904328Y-35445600D01*
X176181682Y-35445600D01*
X176179800Y-34855150D01*
X176021050Y-34696400D01*
X174421800Y-34696400D01*
X174167800Y-34696400D01*
X172568550Y-34696400D01*
X172409800Y-34855150D01*
X172406728Y-35819400D01*
X171153672Y-35819400D01*
X171153672Y-33319400D01*
X172406728Y-33319400D01*
X172409800Y-34283650D01*
X172568550Y-34442400D01*
X174167800Y-34442400D01*
X174167800Y-32843150D01*
X174421800Y-32843150D01*
X174421800Y-34442400D01*
X176021050Y-34442400D01*
X176179800Y-34283650D01*
X176182872Y-33319400D01*
X176170612Y-33194918D01*
X176134302Y-33075220D01*
X176075337Y-32964906D01*
X175995985Y-32868215D01*
X175899294Y-32788863D01*
X175788980Y-32729898D01*
X175669282Y-32693588D01*
X175544800Y-32681328D01*
X174580550Y-32684400D01*
X174421800Y-32843150D01*
X174167800Y-32843150D01*
X174009050Y-32684400D01*
X173044800Y-32681328D01*
X172920318Y-32693588D01*
X172800620Y-32729898D01*
X172690306Y-32788863D01*
X172593615Y-32868215D01*
X172514263Y-32964906D01*
X172455298Y-33075220D01*
X172418988Y-33194918D01*
X172406728Y-33319400D01*
X171153672Y-33319400D01*
X171141412Y-33194918D01*
X171105102Y-33075220D01*
X171046137Y-32964906D01*
X170966785Y-32868215D01*
X170870094Y-32788863D01*
X170759780Y-32729898D01*
X170640082Y-32693588D01*
X170515600Y-32681328D01*
X170025600Y-32681328D01*
X170025600Y-32470600D01*
X177554328Y-32470600D01*
X177554328Y-32920600D01*
X177570912Y-33088977D01*
X177620025Y-33250883D01*
X177699782Y-33400097D01*
X177807116Y-33530884D01*
X177937903Y-33638218D01*
X178087117Y-33717975D01*
X178249023Y-33767088D01*
X178417400Y-33783672D01*
X179667400Y-33783672D01*
X179835777Y-33767088D01*
X179997683Y-33717975D01*
X180146897Y-33638218D01*
X180277684Y-33530884D01*
X180385018Y-33400097D01*
X180464775Y-33250883D01*
X180513888Y-33088977D01*
X180530472Y-32920600D01*
X180530472Y-32470600D01*
X180513888Y-32302223D01*
X180464775Y-32140317D01*
X180385018Y-31991103D01*
X180277684Y-31860316D01*
X180146897Y-31752982D01*
X179997683Y-31673225D01*
X179835777Y-31624112D01*
X179667400Y-31607528D01*
X178417400Y-31607528D01*
X178249023Y-31624112D01*
X178087117Y-31673225D01*
X177937903Y-31752982D01*
X177807116Y-31860316D01*
X177699782Y-31991103D01*
X177620025Y-32140317D01*
X177570912Y-32302223D01*
X177554328Y-32470600D01*
X170025600Y-32470600D01*
X170025600Y-31687201D01*
X172106601Y-29606200D01*
X179461928Y-29606200D01*
X179474188Y-29730682D01*
X179510498Y-29850380D01*
X179569463Y-29960694D01*
X179648815Y-30057385D01*
X179745506Y-30136737D01*
X179855820Y-30195702D01*
X179975518Y-30232012D01*
X180100000Y-30244272D01*
X180714250Y-30241200D01*
X180873000Y-30082450D01*
X180873000Y-29070700D01*
X179623750Y-29070700D01*
X179465000Y-29229450D01*
X179461928Y-29606200D01*
X172106601Y-29606200D01*
X173335602Y-28377200D01*
X174512728Y-28377200D01*
X174524988Y-28501682D01*
X174561298Y-28621380D01*
X174620263Y-28731694D01*
X174699615Y-28828385D01*
X174796306Y-28907737D01*
X174906620Y-28966702D01*
X175026318Y-29003012D01*
X175150800Y-29015272D01*
X175555050Y-29012200D01*
X175713800Y-28853450D01*
X175713800Y-28204200D01*
X175967800Y-28204200D01*
X175967800Y-28853450D01*
X176126550Y-29012200D01*
X176530800Y-29015272D01*
X176655282Y-29003012D01*
X176774980Y-28966702D01*
X176885294Y-28907737D01*
X176981985Y-28828385D01*
X177061337Y-28731694D01*
X177120302Y-28621380D01*
X177156612Y-28501682D01*
X177168872Y-28377200D01*
X177165800Y-28362950D01*
X177007050Y-28204200D01*
X175967800Y-28204200D01*
X175713800Y-28204200D01*
X174674550Y-28204200D01*
X174515800Y-28362950D01*
X174512728Y-28377200D01*
X173335602Y-28377200D01*
X173647531Y-28065272D01*
X174200800Y-28065272D01*
X174325282Y-28053012D01*
X174444980Y-28016702D01*
X174555294Y-27957737D01*
X174624935Y-27900585D01*
X174674550Y-27950200D01*
X175713800Y-27950200D01*
X175713800Y-27930200D01*
X175967800Y-27930200D01*
X175967800Y-27950200D01*
X177007050Y-27950200D01*
X177070050Y-27887200D01*
X179601885Y-27887200D01*
X179569463Y-27926706D01*
G37*
%TD.AperFunction*%
%TD*%
D14*
%TO.N,+3V3*%
X176530801Y-20643234D02*
X176434153Y-20595452D01*
X175122105Y-21907500D01*
X176434153Y-23219548D01*
X176530800Y-23171767D01*
X176530800Y-23622000D01*
X176144375Y-23622000D01*
X176254548Y-23399153D01*
X174942500Y-22087105D01*
X173630452Y-23399153D01*
X173740625Y-23622000D01*
X173303400Y-23622000D01*
X173303400Y-23146652D01*
X173450847Y-23219548D01*
X174762895Y-21907500D01*
X173450847Y-20595452D01*
X173303400Y-20668348D01*
X173303400Y-20415847D01*
X173630452Y-20415847D01*
X174942500Y-21727895D01*
X176254548Y-20415847D01*
X176098538Y-20100286D01*
X175723755Y-19909480D01*
X175318949Y-19795456D01*
X174899676Y-19762598D01*
X174482049Y-19812166D01*
X174082117Y-19942257D01*
X173786462Y-20100286D01*
X173630452Y-20415847D01*
X173303400Y-20415847D01*
X173303400Y-19709600D01*
X176530801Y-19709600D01*
X176530801Y-20643234D01*
%TA.AperFunction,Conductor*%
D15*
G36*
X176530801Y-20643234D02*
G01*
X176434153Y-20595452D01*
X175122105Y-21907500D01*
X176434153Y-23219548D01*
X176530800Y-23171767D01*
X176530800Y-23622000D01*
X176144375Y-23622000D01*
X176254548Y-23399153D01*
X174942500Y-22087105D01*
X173630452Y-23399153D01*
X173740625Y-23622000D01*
X173303400Y-23622000D01*
X173303400Y-23146652D01*
X173450847Y-23219548D01*
X174762895Y-21907500D01*
X173450847Y-20595452D01*
X173303400Y-20668348D01*
X173303400Y-20415847D01*
X173630452Y-20415847D01*
X174942500Y-21727895D01*
X176254548Y-20415847D01*
X176098538Y-20100286D01*
X175723755Y-19909480D01*
X175318949Y-19795456D01*
X174899676Y-19762598D01*
X174482049Y-19812166D01*
X174082117Y-19942257D01*
X173786462Y-20100286D01*
X173630452Y-20415847D01*
X173303400Y-20415847D01*
X173303400Y-19709600D01*
X176530801Y-19709600D01*
X176530801Y-20643234D01*
G37*
%TD.AperFunction*%
%TD*%
M02*
