%TF.GenerationSoftware,KiCad,Pcbnew,(5.1.8)-1*%
%TF.CreationDate,2021-08-27T22:01:00+02:00*%
%TF.ProjectId,powerpack_o,706f7765-7270-4616-936b-5f6f2e6b6963,rev?*%
%TF.SameCoordinates,Original*%
%TF.FileFunction,Copper,L2,Bot*%
%TF.FilePolarity,Positive*%
%FSLAX46Y46*%
G04 Gerber Fmt 4.6, Leading zero omitted, Abs format (unit mm)*
G04 Created by KiCad (PCBNEW (5.1.8)-1) date 2021-08-27 22:01:00*
%MOMM*%
%LPD*%
G01*
G04 APERTURE LIST*
%TA.AperFunction,ComponentPad*%
%ADD10C,3.000000*%
%TD*%
%TA.AperFunction,ViaPad*%
%ADD11C,0.800000*%
%TD*%
%TA.AperFunction,Conductor*%
%ADD12C,0.254000*%
%TD*%
%TA.AperFunction,Conductor*%
%ADD13C,0.100000*%
%TD*%
G04 APERTURE END LIST*
D10*
%TO.P,J2.1,1*%
%TO.N,+3V3*%
X174942500Y-21907500D03*
%TD*%
%TO.P,J2.2,1*%
%TO.N,GND*%
X174942500Y-48895000D03*
%TD*%
D11*
%TO.N,GND*%
X171010000Y-45190000D03*
X168000000Y-39500000D03*
X168650000Y-33420000D03*
X168680000Y-26610000D03*
X178300000Y-25160000D03*
%TD*%
D12*
%TO.N,GND*%
X176541463Y-24088958D02*
X176579881Y-24215606D01*
X176643488Y-24334607D01*
X176729089Y-24438911D01*
X176833393Y-24524512D01*
X176952394Y-24588119D01*
X177081517Y-24627288D01*
X177215800Y-24640514D01*
X177249447Y-24637200D01*
X182703001Y-24637200D01*
X182703000Y-46254200D01*
X177249447Y-46254200D01*
X177215800Y-46250886D01*
X177182153Y-46254200D01*
X177081517Y-46264112D01*
X176952394Y-46303281D01*
X176833393Y-46366888D01*
X176729089Y-46452489D01*
X176643488Y-46556793D01*
X176579881Y-46675794D01*
X176540712Y-46804917D01*
X176527486Y-46939200D01*
X176530801Y-46972857D01*
X176530801Y-47630734D01*
X176434153Y-47582952D01*
X175122105Y-48895000D01*
X176434153Y-50207048D01*
X176530800Y-50159267D01*
X176530800Y-51207200D01*
X173278000Y-51207200D01*
X173278000Y-50386653D01*
X173630452Y-50386653D01*
X173786462Y-50702214D01*
X174161245Y-50893020D01*
X174566051Y-51007044D01*
X174985324Y-51039902D01*
X175402951Y-50990334D01*
X175802883Y-50860243D01*
X176098538Y-50702214D01*
X176254548Y-50386653D01*
X174942500Y-49074605D01*
X173630452Y-50386653D01*
X173278000Y-50386653D01*
X173278000Y-50121594D01*
X173450847Y-50207048D01*
X174762895Y-48895000D01*
X173450847Y-47582952D01*
X173278000Y-47668406D01*
X173278000Y-47403347D01*
X173630452Y-47403347D01*
X174942500Y-48715395D01*
X176254548Y-47403347D01*
X176098538Y-47087786D01*
X175723755Y-46896980D01*
X175318949Y-46782956D01*
X174899676Y-46750098D01*
X174482049Y-46799666D01*
X174082117Y-46929757D01*
X173786462Y-47087786D01*
X173630452Y-47403347D01*
X173278000Y-47403347D01*
X173278000Y-46972846D01*
X173281314Y-46939200D01*
X173268088Y-46804917D01*
X173228919Y-46675794D01*
X173165312Y-46556793D01*
X173079711Y-46452489D01*
X172975407Y-46366888D01*
X172856406Y-46303281D01*
X172727283Y-46264112D01*
X172626647Y-46254200D01*
X172593000Y-46250886D01*
X172559353Y-46254200D01*
X167182000Y-46254200D01*
X167182000Y-25991427D01*
X168555853Y-24637200D01*
X172584753Y-24637200D01*
X172618400Y-24640514D01*
X172752683Y-24627288D01*
X172881806Y-24588119D01*
X173000807Y-24524512D01*
X173105111Y-24438911D01*
X173190712Y-24334607D01*
X173254319Y-24215606D01*
X173293488Y-24086483D01*
X173293618Y-24085165D01*
X176541463Y-24088958D01*
%TA.AperFunction,Conductor*%
D13*
G36*
X176541463Y-24088958D02*
G01*
X176579881Y-24215606D01*
X176643488Y-24334607D01*
X176729089Y-24438911D01*
X176833393Y-24524512D01*
X176952394Y-24588119D01*
X177081517Y-24627288D01*
X177215800Y-24640514D01*
X177249447Y-24637200D01*
X182703001Y-24637200D01*
X182703000Y-46254200D01*
X177249447Y-46254200D01*
X177215800Y-46250886D01*
X177182153Y-46254200D01*
X177081517Y-46264112D01*
X176952394Y-46303281D01*
X176833393Y-46366888D01*
X176729089Y-46452489D01*
X176643488Y-46556793D01*
X176579881Y-46675794D01*
X176540712Y-46804917D01*
X176527486Y-46939200D01*
X176530801Y-46972857D01*
X176530801Y-47630734D01*
X176434153Y-47582952D01*
X175122105Y-48895000D01*
X176434153Y-50207048D01*
X176530800Y-50159267D01*
X176530800Y-51207200D01*
X173278000Y-51207200D01*
X173278000Y-50386653D01*
X173630452Y-50386653D01*
X173786462Y-50702214D01*
X174161245Y-50893020D01*
X174566051Y-51007044D01*
X174985324Y-51039902D01*
X175402951Y-50990334D01*
X175802883Y-50860243D01*
X176098538Y-50702214D01*
X176254548Y-50386653D01*
X174942500Y-49074605D01*
X173630452Y-50386653D01*
X173278000Y-50386653D01*
X173278000Y-50121594D01*
X173450847Y-50207048D01*
X174762895Y-48895000D01*
X173450847Y-47582952D01*
X173278000Y-47668406D01*
X173278000Y-47403347D01*
X173630452Y-47403347D01*
X174942500Y-48715395D01*
X176254548Y-47403347D01*
X176098538Y-47087786D01*
X175723755Y-46896980D01*
X175318949Y-46782956D01*
X174899676Y-46750098D01*
X174482049Y-46799666D01*
X174082117Y-46929757D01*
X173786462Y-47087786D01*
X173630452Y-47403347D01*
X173278000Y-47403347D01*
X173278000Y-46972846D01*
X173281314Y-46939200D01*
X173268088Y-46804917D01*
X173228919Y-46675794D01*
X173165312Y-46556793D01*
X173079711Y-46452489D01*
X172975407Y-46366888D01*
X172856406Y-46303281D01*
X172727283Y-46264112D01*
X172626647Y-46254200D01*
X172593000Y-46250886D01*
X172559353Y-46254200D01*
X167182000Y-46254200D01*
X167182000Y-25991427D01*
X168555853Y-24637200D01*
X172584753Y-24637200D01*
X172618400Y-24640514D01*
X172752683Y-24627288D01*
X172881806Y-24588119D01*
X173000807Y-24524512D01*
X173105111Y-24438911D01*
X173190712Y-24334607D01*
X173254319Y-24215606D01*
X173293488Y-24086483D01*
X173293618Y-24085165D01*
X176541463Y-24088958D01*
G37*
%TD.AperFunction*%
%TD*%
M02*
