%TF.GenerationSoftware,KiCad,Pcbnew,(5.1.8)-1*%
%TF.CreationDate,2021-02-08T11:54:43+01:00*%
%TF.ProjectId,powerpack,706f7765-7270-4616-936b-2e6b69636164,rev?*%
%TF.SameCoordinates,Original*%
%TF.FileFunction,Soldermask,Top*%
%TF.FilePolarity,Negative*%
%FSLAX46Y46*%
G04 Gerber Fmt 4.6, Leading zero omitted, Abs format (unit mm)*
G04 Created by KiCad (PCBNEW (5.1.8)-1) date 2021-02-08 11:54:43*
%MOMM*%
%LPD*%
G01*
G04 APERTURE LIST*
%ADD10C,3.000000*%
%ADD11R,1.380000X0.600000*%
%ADD12R,2.500000X2.500000*%
G04 APERTURE END LIST*
D10*
%TO.C,J2.1*%
X174942500Y-21907500D03*
%TD*%
D11*
%TO.C,U1*%
X173510800Y-27127200D03*
X175840800Y-26177200D03*
X175840800Y-28077200D03*
%TD*%
%TO.C,C1*%
G36*
G01*
X180349997Y-43876800D02*
X181650003Y-43876800D01*
G75*
G02*
X181900000Y-44126797I0J-249997D01*
G01*
X181900000Y-44951803D01*
G75*
G02*
X181650003Y-45201800I-249997J0D01*
G01*
X180349997Y-45201800D01*
G75*
G02*
X180100000Y-44951803I0J249997D01*
G01*
X180100000Y-44126797D01*
G75*
G02*
X180349997Y-43876800I249997J0D01*
G01*
G37*
G36*
G01*
X180349997Y-40751800D02*
X181650003Y-40751800D01*
G75*
G02*
X181900000Y-41001797I0J-249997D01*
G01*
X181900000Y-41826803D01*
G75*
G02*
X181650003Y-42076800I-249997J0D01*
G01*
X180349997Y-42076800D01*
G75*
G02*
X180100000Y-41826803I0J249997D01*
G01*
X180100000Y-41001797D01*
G75*
G02*
X180349997Y-40751800I249997J0D01*
G01*
G37*
%TD*%
%TO.C,C2*%
G36*
G01*
X180349997Y-25156200D02*
X181650003Y-25156200D01*
G75*
G02*
X181900000Y-25406197I0J-249997D01*
G01*
X181900000Y-26231203D01*
G75*
G02*
X181650003Y-26481200I-249997J0D01*
G01*
X180349997Y-26481200D01*
G75*
G02*
X180100000Y-26231203I0J249997D01*
G01*
X180100000Y-25406197D01*
G75*
G02*
X180349997Y-25156200I249997J0D01*
G01*
G37*
G36*
G01*
X180349997Y-28281200D02*
X181650003Y-28281200D01*
G75*
G02*
X181900000Y-28531197I0J-249997D01*
G01*
X181900000Y-29356203D01*
G75*
G02*
X181650003Y-29606200I-249997J0D01*
G01*
X180349997Y-29606200D01*
G75*
G02*
X180100000Y-29356203I0J249997D01*
G01*
X180100000Y-28531197D01*
G75*
G02*
X180349997Y-28281200I249997J0D01*
G01*
G37*
%TD*%
%TO.C,J1*%
G36*
G01*
X181692400Y-33845600D02*
X182642400Y-33845600D01*
G75*
G02*
X182792400Y-33995600I0J-150000D01*
G01*
X182792400Y-34295600D01*
G75*
G02*
X182642400Y-34445600I-150000J0D01*
G01*
X181692400Y-34445600D01*
G75*
G02*
X181542400Y-34295600I0J150000D01*
G01*
X181542400Y-33995600D01*
G75*
G02*
X181692400Y-33845600I150000J0D01*
G01*
G37*
G36*
G01*
X181692400Y-34845600D02*
X182642400Y-34845600D01*
G75*
G02*
X182792400Y-34995600I0J-150000D01*
G01*
X182792400Y-35295600D01*
G75*
G02*
X182642400Y-35445600I-150000J0D01*
G01*
X181692400Y-35445600D01*
G75*
G02*
X181542400Y-35295600I0J150000D01*
G01*
X181542400Y-34995600D01*
G75*
G02*
X181692400Y-34845600I150000J0D01*
G01*
G37*
G36*
G01*
X178417400Y-32245600D02*
X179667400Y-32245600D01*
G75*
G02*
X179892400Y-32470600I0J-225000D01*
G01*
X179892400Y-32920600D01*
G75*
G02*
X179667400Y-33145600I-225000J0D01*
G01*
X178417400Y-33145600D01*
G75*
G02*
X178192400Y-32920600I0J225000D01*
G01*
X178192400Y-32470600D01*
G75*
G02*
X178417400Y-32245600I225000J0D01*
G01*
G37*
G36*
G01*
X178417400Y-36145600D02*
X179667400Y-36145600D01*
G75*
G02*
X179892400Y-36370600I0J-225000D01*
G01*
X179892400Y-36820600D01*
G75*
G02*
X179667400Y-37045600I-225000J0D01*
G01*
X178417400Y-37045600D01*
G75*
G02*
X178192400Y-36820600I0J225000D01*
G01*
X178192400Y-36370600D01*
G75*
G02*
X178417400Y-36145600I225000J0D01*
G01*
G37*
%TD*%
D12*
%TO.C,-*%
X174294800Y-34569400D03*
%TD*%
%TO.C,+*%
X169265600Y-34569400D03*
%TD*%
D10*
%TO.C,J2.2*%
X174942500Y-48895000D03*
%TD*%
M02*
