%TF.GenerationSoftware,KiCad,Pcbnew,(5.1.8)-1*%
%TF.CreationDate,2021-02-08T11:54:43+01:00*%
%TF.ProjectId,powerpack,706f7765-7270-4616-936b-2e6b69636164,rev?*%
%TF.SameCoordinates,Original*%
%TF.FileFunction,Legend,Bot*%
%TF.FilePolarity,Positive*%
%FSLAX46Y46*%
G04 Gerber Fmt 4.6, Leading zero omitted, Abs format (unit mm)*
G04 Created by KiCad (PCBNEW (5.1.8)-1) date 2021-02-08 11:54:43*
%MOMM*%
%LPD*%
G01*
G04 APERTURE LIST*
%ADD10C,0.010000*%
G04 APERTURE END LIST*
D10*
%TO.C,REF\u002A\u002A*%
G36*
X178804403Y-30617600D02*
G01*
X178860022Y-30729150D01*
X178962431Y-30827608D01*
X179000364Y-30854723D01*
X179050000Y-30884262D01*
X179103912Y-30903428D01*
X179175864Y-30914393D01*
X179279622Y-30919329D01*
X179416601Y-30920413D01*
X179604315Y-30915518D01*
X179745258Y-30898504D01*
X179850408Y-30865877D01*
X179930743Y-30814142D01*
X179997241Y-30739804D01*
X180001178Y-30734342D01*
X180041453Y-30661080D01*
X180061380Y-30572860D01*
X180066293Y-30460662D01*
X180066293Y-30278267D01*
X180243357Y-30278191D01*
X180341970Y-30276493D01*
X180399814Y-30266150D01*
X180434506Y-30239122D01*
X180463664Y-30187368D01*
X180469621Y-30174939D01*
X180497539Y-30116777D01*
X180515172Y-30071744D01*
X180516694Y-30038259D01*
X180496281Y-30014738D01*
X180448107Y-29999600D01*
X180366346Y-29991263D01*
X180245172Y-29988144D01*
X180078760Y-29988660D01*
X179861285Y-29991229D01*
X179796236Y-29992032D01*
X179572002Y-29994922D01*
X179425321Y-29997512D01*
X179425321Y-30278114D01*
X179549826Y-30279691D01*
X179631287Y-30286700D01*
X179685015Y-30302558D01*
X179726323Y-30330681D01*
X179746471Y-30349775D01*
X179805421Y-30427835D01*
X179810220Y-30496947D01*
X179761538Y-30568260D01*
X179759741Y-30570068D01*
X179722118Y-30599083D01*
X179670984Y-30616733D01*
X179592238Y-30625636D01*
X179471776Y-30628409D01*
X179445088Y-30628459D01*
X179279083Y-30621758D01*
X179164005Y-30599948D01*
X179093754Y-30560465D01*
X179062229Y-30500744D01*
X179059052Y-30466228D01*
X179073960Y-30384311D01*
X179123048Y-30328121D01*
X179212862Y-30294298D01*
X179349945Y-30279480D01*
X179425321Y-30278114D01*
X179425321Y-29997512D01*
X179398452Y-29997987D01*
X179267882Y-30001947D01*
X179172587Y-30007526D01*
X179104864Y-30015446D01*
X179057007Y-30026431D01*
X179021313Y-30041201D01*
X178990078Y-30060482D01*
X178978324Y-30068749D01*
X178867297Y-30178412D01*
X178804347Y-30317065D01*
X178786797Y-30477454D01*
X178804403Y-30617600D01*
G37*
X178804403Y-30617600D02*
X178860022Y-30729150D01*
X178962431Y-30827608D01*
X179000364Y-30854723D01*
X179050000Y-30884262D01*
X179103912Y-30903428D01*
X179175864Y-30914393D01*
X179279622Y-30919329D01*
X179416601Y-30920413D01*
X179604315Y-30915518D01*
X179745258Y-30898504D01*
X179850408Y-30865877D01*
X179930743Y-30814142D01*
X179997241Y-30739804D01*
X180001178Y-30734342D01*
X180041453Y-30661080D01*
X180061380Y-30572860D01*
X180066293Y-30460662D01*
X180066293Y-30278267D01*
X180243357Y-30278191D01*
X180341970Y-30276493D01*
X180399814Y-30266150D01*
X180434506Y-30239122D01*
X180463664Y-30187368D01*
X180469621Y-30174939D01*
X180497539Y-30116777D01*
X180515172Y-30071744D01*
X180516694Y-30038259D01*
X180496281Y-30014738D01*
X180448107Y-29999600D01*
X180366346Y-29991263D01*
X180245172Y-29988144D01*
X180078760Y-29988660D01*
X179861285Y-29991229D01*
X179796236Y-29992032D01*
X179572002Y-29994922D01*
X179425321Y-29997512D01*
X179425321Y-30278114D01*
X179549826Y-30279691D01*
X179631287Y-30286700D01*
X179685015Y-30302558D01*
X179726323Y-30330681D01*
X179746471Y-30349775D01*
X179805421Y-30427835D01*
X179810220Y-30496947D01*
X179761538Y-30568260D01*
X179759741Y-30570068D01*
X179722118Y-30599083D01*
X179670984Y-30616733D01*
X179592238Y-30625636D01*
X179471776Y-30628409D01*
X179445088Y-30628459D01*
X179279083Y-30621758D01*
X179164005Y-30599948D01*
X179093754Y-30560465D01*
X179062229Y-30500744D01*
X179059052Y-30466228D01*
X179073960Y-30384311D01*
X179123048Y-30328121D01*
X179212862Y-30294298D01*
X179349945Y-30279480D01*
X179425321Y-30278114D01*
X179425321Y-29997512D01*
X179398452Y-29997987D01*
X179267882Y-30001947D01*
X179172587Y-30007526D01*
X179104864Y-30015446D01*
X179057007Y-30026431D01*
X179021313Y-30041201D01*
X178990078Y-30060482D01*
X178978324Y-30068749D01*
X178867297Y-30178412D01*
X178804347Y-30317065D01*
X178786797Y-30477454D01*
X178804403Y-30617600D01*
G36*
X178820219Y-32863129D02*
G01*
X178874414Y-32956823D01*
X178928207Y-33021964D01*
X178984566Y-33069607D01*
X179053487Y-33102428D01*
X179144968Y-33123106D01*
X179269006Y-33134320D01*
X179435598Y-33138749D01*
X179555351Y-33139263D01*
X179996159Y-33139263D01*
X180051783Y-33015183D01*
X180107407Y-32891102D01*
X179624595Y-32876505D01*
X179444279Y-32870473D01*
X179313401Y-32864145D01*
X179223011Y-32856306D01*
X179164164Y-32845737D01*
X179127913Y-32831223D01*
X179105310Y-32811548D01*
X179100417Y-32805235D01*
X179062206Y-32709588D01*
X179077327Y-32612907D01*
X179117443Y-32555355D01*
X179145870Y-32531945D01*
X179183172Y-32515739D01*
X179239723Y-32505441D01*
X179325894Y-32499749D01*
X179452058Y-32497364D01*
X179583542Y-32496964D01*
X179748499Y-32496886D01*
X179865261Y-32494061D01*
X179944010Y-32484607D01*
X179994931Y-32464640D01*
X180028206Y-32430276D01*
X180054020Y-32377632D01*
X180080844Y-32307317D01*
X180110042Y-32230520D01*
X179591846Y-32239662D01*
X179405039Y-32243343D01*
X179266990Y-32247650D01*
X179168068Y-32253823D01*
X179098645Y-32263102D01*
X179049090Y-32276727D01*
X179009773Y-32295939D01*
X178975084Y-32319102D01*
X178864270Y-32430852D01*
X178800189Y-32567213D01*
X178784839Y-32715525D01*
X178820219Y-32863129D01*
G37*
X178820219Y-32863129D02*
X178874414Y-32956823D01*
X178928207Y-33021964D01*
X178984566Y-33069607D01*
X179053487Y-33102428D01*
X179144968Y-33123106D01*
X179269006Y-33134320D01*
X179435598Y-33138749D01*
X179555351Y-33139263D01*
X179996159Y-33139263D01*
X180051783Y-33015183D01*
X180107407Y-32891102D01*
X179624595Y-32876505D01*
X179444279Y-32870473D01*
X179313401Y-32864145D01*
X179223011Y-32856306D01*
X179164164Y-32845737D01*
X179127913Y-32831223D01*
X179105310Y-32811548D01*
X179100417Y-32805235D01*
X179062206Y-32709588D01*
X179077327Y-32612907D01*
X179117443Y-32555355D01*
X179145870Y-32531945D01*
X179183172Y-32515739D01*
X179239723Y-32505441D01*
X179325894Y-32499749D01*
X179452058Y-32497364D01*
X179583542Y-32496964D01*
X179748499Y-32496886D01*
X179865261Y-32494061D01*
X179944010Y-32484607D01*
X179994931Y-32464640D01*
X180028206Y-32430276D01*
X180054020Y-32377632D01*
X180080844Y-32307317D01*
X180110042Y-32230520D01*
X179591846Y-32239662D01*
X179405039Y-32243343D01*
X179266990Y-32247650D01*
X179168068Y-32253823D01*
X179098645Y-32263102D01*
X179049090Y-32276727D01*
X179009773Y-32295939D01*
X178975084Y-32319102D01*
X178864270Y-32430852D01*
X178800189Y-32567213D01*
X178784839Y-32715525D01*
X178820219Y-32863129D01*
G36*
X178808515Y-29493921D02*
G01*
X178880468Y-29630761D01*
X178996266Y-29731751D01*
X179070713Y-29767625D01*
X179182492Y-29795539D01*
X179323727Y-29809829D01*
X179477871Y-29811184D01*
X179628379Y-29800295D01*
X179758705Y-29777853D01*
X179852303Y-29744550D01*
X179868422Y-29734315D01*
X179988749Y-29613082D01*
X180060817Y-29469087D01*
X180081908Y-29312839D01*
X180049302Y-29154848D01*
X180029753Y-29110880D01*
X179969512Y-29025256D01*
X179889635Y-28950108D01*
X179879504Y-28943006D01*
X179830681Y-28914139D01*
X179778490Y-28895057D01*
X179709785Y-28883784D01*
X179611418Y-28878345D01*
X179470244Y-28876762D01*
X179438592Y-28876735D01*
X179428519Y-28876807D01*
X179428519Y-29168689D01*
X179561756Y-29170387D01*
X179650174Y-29177072D01*
X179707285Y-29191125D01*
X179746602Y-29214929D01*
X179759741Y-29227079D01*
X179809672Y-29296936D01*
X179807395Y-29364759D01*
X179764084Y-29433335D01*
X179717846Y-29474235D01*
X179650357Y-29498458D01*
X179543933Y-29512061D01*
X179531520Y-29512994D01*
X179338647Y-29515316D01*
X179195400Y-29491050D01*
X179102660Y-29440524D01*
X179061307Y-29364068D01*
X179059052Y-29336776D01*
X179070393Y-29265111D01*
X179109684Y-29216090D01*
X179184826Y-29186118D01*
X179303722Y-29171599D01*
X179428519Y-29168689D01*
X179428519Y-28876807D01*
X179288159Y-28877822D01*
X179183049Y-28882388D01*
X179110214Y-28892388D01*
X179056608Y-28909779D01*
X179009181Y-28936516D01*
X179000364Y-28942424D01*
X178881507Y-29041732D01*
X178812508Y-29149942D01*
X178785119Y-29281681D01*
X178783781Y-29326417D01*
X178808515Y-29493921D01*
G37*
X178808515Y-29493921D02*
X178880468Y-29630761D01*
X178996266Y-29731751D01*
X179070713Y-29767625D01*
X179182492Y-29795539D01*
X179323727Y-29809829D01*
X179477871Y-29811184D01*
X179628379Y-29800295D01*
X179758705Y-29777853D01*
X179852303Y-29744550D01*
X179868422Y-29734315D01*
X179988749Y-29613082D01*
X180060817Y-29469087D01*
X180081908Y-29312839D01*
X180049302Y-29154848D01*
X180029753Y-29110880D01*
X179969512Y-29025256D01*
X179889635Y-28950108D01*
X179879504Y-28943006D01*
X179830681Y-28914139D01*
X179778490Y-28895057D01*
X179709785Y-28883784D01*
X179611418Y-28878345D01*
X179470244Y-28876762D01*
X179438592Y-28876735D01*
X179428519Y-28876807D01*
X179428519Y-29168689D01*
X179561756Y-29170387D01*
X179650174Y-29177072D01*
X179707285Y-29191125D01*
X179746602Y-29214929D01*
X179759741Y-29227079D01*
X179809672Y-29296936D01*
X179807395Y-29364759D01*
X179764084Y-29433335D01*
X179717846Y-29474235D01*
X179650357Y-29498458D01*
X179543933Y-29512061D01*
X179531520Y-29512994D01*
X179338647Y-29515316D01*
X179195400Y-29491050D01*
X179102660Y-29440524D01*
X179061307Y-29364068D01*
X179059052Y-29336776D01*
X179070393Y-29265111D01*
X179109684Y-29216090D01*
X179184826Y-29186118D01*
X179303722Y-29171599D01*
X179428519Y-29168689D01*
X179428519Y-28876807D01*
X179288159Y-28877822D01*
X179183049Y-28882388D01*
X179110214Y-28892388D01*
X179056608Y-28909779D01*
X179009181Y-28936516D01*
X179000364Y-28942424D01*
X178881507Y-29041732D01*
X178812508Y-29149942D01*
X178785119Y-29281681D01*
X178783781Y-29326417D01*
X178808515Y-29493921D01*
G36*
X178827176Y-31761252D02*
G01*
X178904611Y-31876358D01*
X179016449Y-31965311D01*
X179158765Y-32018449D01*
X179263515Y-32029197D01*
X179307226Y-32027976D01*
X179340694Y-32017756D01*
X179370679Y-31989661D01*
X179403940Y-31934816D01*
X179447238Y-31844345D01*
X179507333Y-31709372D01*
X179507634Y-31708689D01*
X179564537Y-31584451D01*
X179615065Y-31482573D01*
X179653780Y-31413467D01*
X179675240Y-31387546D01*
X179675413Y-31387539D01*
X179722144Y-31410385D01*
X179773654Y-31463809D01*
X179810761Y-31525142D01*
X179818132Y-31556215D01*
X179792638Y-31640989D01*
X179728791Y-31713993D01*
X179658594Y-31749613D01*
X179606843Y-31783880D01*
X179547909Y-31851003D01*
X179496996Y-31929908D01*
X179469309Y-31999521D01*
X179467787Y-32014077D01*
X179492821Y-32030463D01*
X179556811Y-32031450D01*
X179643093Y-32019408D01*
X179735001Y-31996707D01*
X179815869Y-31965714D01*
X179819009Y-31964148D01*
X179949234Y-31870881D01*
X180037811Y-31750004D01*
X180081286Y-31612727D01*
X180076206Y-31470260D01*
X180019116Y-31333812D01*
X180015102Y-31327745D01*
X179917826Y-31220410D01*
X179790909Y-31149832D01*
X179624026Y-31110774D01*
X179577139Y-31105532D01*
X179355829Y-31096248D01*
X179252624Y-31107378D01*
X179252624Y-31387539D01*
X179317003Y-31391179D01*
X179335791Y-31411089D01*
X179321735Y-31460726D01*
X179288509Y-31538967D01*
X179246859Y-31626426D01*
X179245756Y-31628599D01*
X179206765Y-31702730D01*
X179180744Y-31732481D01*
X179153465Y-31725145D01*
X179117621Y-31694253D01*
X179065751Y-31615660D01*
X179061939Y-31531023D01*
X179099689Y-31455103D01*
X179172501Y-31402665D01*
X179252624Y-31387539D01*
X179252624Y-31107378D01*
X179178761Y-31115344D01*
X179038329Y-31164334D01*
X178939947Y-31232536D01*
X178840530Y-31355635D01*
X178791211Y-31491228D01*
X178788068Y-31629655D01*
X178827176Y-31761252D01*
G37*
X178827176Y-31761252D02*
X178904611Y-31876358D01*
X179016449Y-31965311D01*
X179158765Y-32018449D01*
X179263515Y-32029197D01*
X179307226Y-32027976D01*
X179340694Y-32017756D01*
X179370679Y-31989661D01*
X179403940Y-31934816D01*
X179447238Y-31844345D01*
X179507333Y-31709372D01*
X179507634Y-31708689D01*
X179564537Y-31584451D01*
X179615065Y-31482573D01*
X179653780Y-31413467D01*
X179675240Y-31387546D01*
X179675413Y-31387539D01*
X179722144Y-31410385D01*
X179773654Y-31463809D01*
X179810761Y-31525142D01*
X179818132Y-31556215D01*
X179792638Y-31640989D01*
X179728791Y-31713993D01*
X179658594Y-31749613D01*
X179606843Y-31783880D01*
X179547909Y-31851003D01*
X179496996Y-31929908D01*
X179469309Y-31999521D01*
X179467787Y-32014077D01*
X179492821Y-32030463D01*
X179556811Y-32031450D01*
X179643093Y-32019408D01*
X179735001Y-31996707D01*
X179815869Y-31965714D01*
X179819009Y-31964148D01*
X179949234Y-31870881D01*
X180037811Y-31750004D01*
X180081286Y-31612727D01*
X180076206Y-31470260D01*
X180019116Y-31333812D01*
X180015102Y-31327745D01*
X179917826Y-31220410D01*
X179790909Y-31149832D01*
X179624026Y-31110774D01*
X179577139Y-31105532D01*
X179355829Y-31096248D01*
X179252624Y-31107378D01*
X179252624Y-31387539D01*
X179317003Y-31391179D01*
X179335791Y-31411089D01*
X179321735Y-31460726D01*
X179288509Y-31538967D01*
X179246859Y-31626426D01*
X179245756Y-31628599D01*
X179206765Y-31702730D01*
X179180744Y-31732481D01*
X179153465Y-31725145D01*
X179117621Y-31694253D01*
X179065751Y-31615660D01*
X179061939Y-31531023D01*
X179099689Y-31455103D01*
X179172501Y-31402665D01*
X179252624Y-31387539D01*
X179252624Y-31107378D01*
X179178761Y-31115344D01*
X179038329Y-31164334D01*
X178939947Y-31232536D01*
X178840530Y-31355635D01*
X178791211Y-31491228D01*
X178788068Y-31629655D01*
X178827176Y-31761252D01*
G36*
X178666357Y-34190298D02*
G01*
X178785688Y-34198854D01*
X178856006Y-34208681D01*
X178886679Y-34222299D01*
X178887071Y-34242227D01*
X178883410Y-34248689D01*
X178856898Y-34334640D01*
X178858446Y-34446445D01*
X178885699Y-34560114D01*
X178920955Y-34631210D01*
X178977278Y-34704105D01*
X179041019Y-34757393D01*
X179122010Y-34793975D01*
X179230086Y-34816750D01*
X179375080Y-34828619D01*
X179566826Y-34832482D01*
X179603609Y-34832551D01*
X180016788Y-34832597D01*
X180048839Y-34740654D01*
X180070644Y-34675352D01*
X180080797Y-34639524D01*
X180080891Y-34638470D01*
X180053360Y-34634942D01*
X179977423Y-34631939D01*
X179863065Y-34629690D01*
X179720269Y-34628424D01*
X179633451Y-34628229D01*
X179462273Y-34627823D01*
X179339588Y-34625732D01*
X179255500Y-34620647D01*
X179200114Y-34611260D01*
X179163532Y-34596261D01*
X179135859Y-34574342D01*
X179122532Y-34560657D01*
X179068828Y-34466649D01*
X179064807Y-34364064D01*
X179110225Y-34270990D01*
X179126623Y-34253778D01*
X179157457Y-34228532D01*
X179194031Y-34211020D01*
X179246915Y-34199842D01*
X179326677Y-34193596D01*
X179443885Y-34190882D01*
X179605491Y-34190298D01*
X180016788Y-34190298D01*
X180048839Y-34098355D01*
X180070644Y-34033053D01*
X180080797Y-33997225D01*
X180080891Y-33996171D01*
X180052948Y-33993475D01*
X179974130Y-33991045D01*
X179851953Y-33988978D01*
X179693932Y-33987371D01*
X179507583Y-33986323D01*
X179300420Y-33985931D01*
X179291206Y-33985930D01*
X178501520Y-33985930D01*
X178461497Y-34080815D01*
X178421473Y-34175700D01*
X178666357Y-34190298D01*
G37*
X178666357Y-34190298D02*
X178785688Y-34198854D01*
X178856006Y-34208681D01*
X178886679Y-34222299D01*
X178887071Y-34242227D01*
X178883410Y-34248689D01*
X178856898Y-34334640D01*
X178858446Y-34446445D01*
X178885699Y-34560114D01*
X178920955Y-34631210D01*
X178977278Y-34704105D01*
X179041019Y-34757393D01*
X179122010Y-34793975D01*
X179230086Y-34816750D01*
X179375080Y-34828619D01*
X179566826Y-34832482D01*
X179603609Y-34832551D01*
X180016788Y-34832597D01*
X180048839Y-34740654D01*
X180070644Y-34675352D01*
X180080797Y-34639524D01*
X180080891Y-34638470D01*
X180053360Y-34634942D01*
X179977423Y-34631939D01*
X179863065Y-34629690D01*
X179720269Y-34628424D01*
X179633451Y-34628229D01*
X179462273Y-34627823D01*
X179339588Y-34625732D01*
X179255500Y-34620647D01*
X179200114Y-34611260D01*
X179163532Y-34596261D01*
X179135859Y-34574342D01*
X179122532Y-34560657D01*
X179068828Y-34466649D01*
X179064807Y-34364064D01*
X179110225Y-34270990D01*
X179126623Y-34253778D01*
X179157457Y-34228532D01*
X179194031Y-34211020D01*
X179246915Y-34199842D01*
X179326677Y-34193596D01*
X179443885Y-34190882D01*
X179605491Y-34190298D01*
X180016788Y-34190298D01*
X180048839Y-34098355D01*
X180070644Y-34033053D01*
X180080797Y-33997225D01*
X180080891Y-33996171D01*
X180052948Y-33993475D01*
X179974130Y-33991045D01*
X179851953Y-33988978D01*
X179693932Y-33987371D01*
X179507583Y-33986323D01*
X179300420Y-33985931D01*
X179291206Y-33985930D01*
X178501520Y-33985930D01*
X178461497Y-34080815D01*
X178421473Y-34175700D01*
X178666357Y-34190298D01*
G36*
X178866860Y-35525644D02*
G01*
X178909342Y-35640043D01*
X178910158Y-35641352D01*
X178962230Y-35712103D01*
X179023084Y-35764336D01*
X179102387Y-35801071D01*
X179209809Y-35825334D01*
X179355017Y-35840145D01*
X179547679Y-35848529D01*
X179575128Y-35849264D01*
X179989021Y-35859820D01*
X180034956Y-35770991D01*
X180065998Y-35706718D01*
X180080706Y-35667910D01*
X180080891Y-35666115D01*
X180053750Y-35659400D01*
X179980541Y-35654065D01*
X179873581Y-35650783D01*
X179786969Y-35650068D01*
X179646662Y-35650051D01*
X179558551Y-35643637D01*
X179516525Y-35621280D01*
X179514475Y-35573432D01*
X179546290Y-35490549D01*
X179604772Y-35365413D01*
X179653345Y-35273397D01*
X179695486Y-35226071D01*
X179741416Y-35212158D01*
X179743689Y-35212137D01*
X179822811Y-35235095D01*
X179865555Y-35303070D01*
X179871746Y-35407098D01*
X179870672Y-35482030D01*
X179892253Y-35521539D01*
X179944091Y-35546178D01*
X180010132Y-35560359D01*
X180047604Y-35539923D01*
X180052967Y-35532228D01*
X180074506Y-35459783D01*
X180077555Y-35358333D01*
X180063278Y-35253857D01*
X180037188Y-35179825D01*
X179950285Y-35077472D01*
X179829316Y-35019291D01*
X179734808Y-35007769D01*
X179649562Y-35016562D01*
X179579976Y-35048380D01*
X179518172Y-35111384D01*
X179456272Y-35213731D01*
X179386397Y-35363582D01*
X179382448Y-35372712D01*
X179320088Y-35507697D01*
X179268946Y-35590994D01*
X179222988Y-35626697D01*
X179176183Y-35618903D01*
X179122498Y-35571707D01*
X179110144Y-35557594D01*
X179062241Y-35463059D01*
X179064258Y-35365106D01*
X179111224Y-35279797D01*
X179198169Y-35223196D01*
X179215234Y-35217937D01*
X179298004Y-35166723D01*
X179337872Y-35101737D01*
X179377382Y-35007769D01*
X179275158Y-35007769D01*
X179126572Y-35036353D01*
X178990284Y-35121195D01*
X178944691Y-35165345D01*
X178886174Y-35265705D01*
X178859684Y-35393335D01*
X178866860Y-35525644D01*
G37*
X178866860Y-35525644D02*
X178909342Y-35640043D01*
X178910158Y-35641352D01*
X178962230Y-35712103D01*
X179023084Y-35764336D01*
X179102387Y-35801071D01*
X179209809Y-35825334D01*
X179355017Y-35840145D01*
X179547679Y-35848529D01*
X179575128Y-35849264D01*
X179989021Y-35859820D01*
X180034956Y-35770991D01*
X180065998Y-35706718D01*
X180080706Y-35667910D01*
X180080891Y-35666115D01*
X180053750Y-35659400D01*
X179980541Y-35654065D01*
X179873581Y-35650783D01*
X179786969Y-35650068D01*
X179646662Y-35650051D01*
X179558551Y-35643637D01*
X179516525Y-35621280D01*
X179514475Y-35573432D01*
X179546290Y-35490549D01*
X179604772Y-35365413D01*
X179653345Y-35273397D01*
X179695486Y-35226071D01*
X179741416Y-35212158D01*
X179743689Y-35212137D01*
X179822811Y-35235095D01*
X179865555Y-35303070D01*
X179871746Y-35407098D01*
X179870672Y-35482030D01*
X179892253Y-35521539D01*
X179944091Y-35546178D01*
X180010132Y-35560359D01*
X180047604Y-35539923D01*
X180052967Y-35532228D01*
X180074506Y-35459783D01*
X180077555Y-35358333D01*
X180063278Y-35253857D01*
X180037188Y-35179825D01*
X179950285Y-35077472D01*
X179829316Y-35019291D01*
X179734808Y-35007769D01*
X179649562Y-35016562D01*
X179579976Y-35048380D01*
X179518172Y-35111384D01*
X179456272Y-35213731D01*
X179386397Y-35363582D01*
X179382448Y-35372712D01*
X179320088Y-35507697D01*
X179268946Y-35590994D01*
X179222988Y-35626697D01*
X179176183Y-35618903D01*
X179122498Y-35571707D01*
X179110144Y-35557594D01*
X179062241Y-35463059D01*
X179064258Y-35365106D01*
X179111224Y-35279797D01*
X179198169Y-35223196D01*
X179215234Y-35217937D01*
X179298004Y-35166723D01*
X179337872Y-35101737D01*
X179377382Y-35007769D01*
X179275158Y-35007769D01*
X179126572Y-35036353D01*
X178990284Y-35121195D01*
X178944691Y-35165345D01*
X178886174Y-35265705D01*
X178859684Y-35393335D01*
X178866860Y-35525644D01*
G36*
X178864420Y-36511643D02*
G01*
X178913359Y-36644265D01*
X178999919Y-36751710D01*
X179060852Y-36793732D01*
X179172661Y-36839543D01*
X179253506Y-36838591D01*
X179307878Y-36790508D01*
X179317124Y-36772717D01*
X179345950Y-36695904D01*
X179338565Y-36656676D01*
X179290158Y-36643389D01*
X179263420Y-36642712D01*
X179165048Y-36618386D01*
X179096234Y-36554981D01*
X179062998Y-36466854D01*
X179071361Y-36368363D01*
X179114796Y-36288302D01*
X179139572Y-36261261D01*
X179169629Y-36242094D01*
X179215065Y-36229146D01*
X179285976Y-36220764D01*
X179392460Y-36215293D01*
X179544612Y-36211078D01*
X179592787Y-36209987D01*
X179757595Y-36206007D01*
X179873588Y-36201481D01*
X179950333Y-36194695D01*
X179997393Y-36183931D01*
X180024335Y-36167473D01*
X180040723Y-36143606D01*
X180047963Y-36128326D01*
X180072720Y-36063433D01*
X180080891Y-36025234D01*
X180053603Y-36012612D01*
X179971103Y-36004908D01*
X179832441Y-36002080D01*
X179636662Y-36004086D01*
X179606465Y-36004711D01*
X179427849Y-36009121D01*
X179297423Y-36014335D01*
X179204992Y-36021755D01*
X179140358Y-36032782D01*
X179093325Y-36048817D01*
X179053696Y-36071261D01*
X179036715Y-36083002D01*
X178961580Y-36150319D01*
X178903138Y-36225610D01*
X178898036Y-36234828D01*
X178857760Y-36369833D01*
X178864420Y-36511643D01*
G37*
X178864420Y-36511643D02*
X178913359Y-36644265D01*
X178999919Y-36751710D01*
X179060852Y-36793732D01*
X179172661Y-36839543D01*
X179253506Y-36838591D01*
X179307878Y-36790508D01*
X179317124Y-36772717D01*
X179345950Y-36695904D01*
X179338565Y-36656676D01*
X179290158Y-36643389D01*
X179263420Y-36642712D01*
X179165048Y-36618386D01*
X179096234Y-36554981D01*
X179062998Y-36466854D01*
X179071361Y-36368363D01*
X179114796Y-36288302D01*
X179139572Y-36261261D01*
X179169629Y-36242094D01*
X179215065Y-36229146D01*
X179285976Y-36220764D01*
X179392460Y-36215293D01*
X179544612Y-36211078D01*
X179592787Y-36209987D01*
X179757595Y-36206007D01*
X179873588Y-36201481D01*
X179950333Y-36194695D01*
X179997393Y-36183931D01*
X180024335Y-36167473D01*
X180040723Y-36143606D01*
X180047963Y-36128326D01*
X180072720Y-36063433D01*
X180080891Y-36025234D01*
X180053603Y-36012612D01*
X179971103Y-36004908D01*
X179832441Y-36002080D01*
X179636662Y-36004086D01*
X179606465Y-36004711D01*
X179427849Y-36009121D01*
X179297423Y-36014335D01*
X179204992Y-36021755D01*
X179140358Y-36032782D01*
X179093325Y-36048817D01*
X179053696Y-36071261D01*
X179036715Y-36083002D01*
X178961580Y-36150319D01*
X178903138Y-36225610D01*
X178898036Y-36234828D01*
X178857760Y-36369833D01*
X178864420Y-36511643D01*
G36*
X179096955Y-37839614D02*
G01*
X179315161Y-37839243D01*
X179483019Y-37837808D01*
X179608570Y-37834702D01*
X179699855Y-37829322D01*
X179764915Y-37821062D01*
X179811791Y-37809316D01*
X179848524Y-37793481D01*
X179869491Y-37781490D01*
X179983194Y-37682190D01*
X180054465Y-37556288D01*
X180080038Y-37416991D01*
X180056650Y-37277505D01*
X180014619Y-37194443D01*
X179941911Y-37107245D01*
X179853112Y-37047817D01*
X179736820Y-37011961D01*
X179581635Y-36995481D01*
X179467787Y-36993147D01*
X179459606Y-36993461D01*
X179459606Y-37197424D01*
X179590157Y-37198670D01*
X179676580Y-37204378D01*
X179733118Y-37217504D01*
X179774014Y-37241006D01*
X179804862Y-37269086D01*
X179864405Y-37363388D01*
X179869492Y-37464640D01*
X179819779Y-37560336D01*
X179813043Y-37567784D01*
X179778002Y-37599574D01*
X179736311Y-37619508D01*
X179674262Y-37630300D01*
X179578144Y-37634665D01*
X179471879Y-37635355D01*
X179338380Y-37633859D01*
X179249322Y-37627664D01*
X179190793Y-37614214D01*
X179148882Y-37590951D01*
X179126623Y-37571875D01*
X179070485Y-37483263D01*
X179063735Y-37381208D01*
X179106614Y-37283795D01*
X179122532Y-37264996D01*
X179157882Y-37232993D01*
X179200002Y-37213018D01*
X179262751Y-37202293D01*
X179359987Y-37198039D01*
X179459606Y-37197424D01*
X179459606Y-36993461D01*
X179284447Y-37000204D01*
X179146695Y-37024172D01*
X179043132Y-37069248D01*
X178962356Y-37139628D01*
X178920955Y-37194443D01*
X178876228Y-37294076D01*
X178855467Y-37409555D01*
X178861025Y-37516899D01*
X178883443Y-37576964D01*
X178889823Y-37600535D01*
X178866035Y-37616177D01*
X178802288Y-37627095D01*
X178705187Y-37635355D01*
X178597041Y-37644399D01*
X178531975Y-37656961D01*
X178494768Y-37679819D01*
X178470199Y-37719751D01*
X178459319Y-37744838D01*
X178419572Y-37839723D01*
X179096955Y-37839614D01*
G37*
X179096955Y-37839614D02*
X179315161Y-37839243D01*
X179483019Y-37837808D01*
X179608570Y-37834702D01*
X179699855Y-37829322D01*
X179764915Y-37821062D01*
X179811791Y-37809316D01*
X179848524Y-37793481D01*
X179869491Y-37781490D01*
X179983194Y-37682190D01*
X180054465Y-37556288D01*
X180080038Y-37416991D01*
X180056650Y-37277505D01*
X180014619Y-37194443D01*
X179941911Y-37107245D01*
X179853112Y-37047817D01*
X179736820Y-37011961D01*
X179581635Y-36995481D01*
X179467787Y-36993147D01*
X179459606Y-36993461D01*
X179459606Y-37197424D01*
X179590157Y-37198670D01*
X179676580Y-37204378D01*
X179733118Y-37217504D01*
X179774014Y-37241006D01*
X179804862Y-37269086D01*
X179864405Y-37363388D01*
X179869492Y-37464640D01*
X179819779Y-37560336D01*
X179813043Y-37567784D01*
X179778002Y-37599574D01*
X179736311Y-37619508D01*
X179674262Y-37630300D01*
X179578144Y-37634665D01*
X179471879Y-37635355D01*
X179338380Y-37633859D01*
X179249322Y-37627664D01*
X179190793Y-37614214D01*
X179148882Y-37590951D01*
X179126623Y-37571875D01*
X179070485Y-37483263D01*
X179063735Y-37381208D01*
X179106614Y-37283795D01*
X179122532Y-37264996D01*
X179157882Y-37232993D01*
X179200002Y-37213018D01*
X179262751Y-37202293D01*
X179359987Y-37198039D01*
X179459606Y-37197424D01*
X179459606Y-36993461D01*
X179284447Y-37000204D01*
X179146695Y-37024172D01*
X179043132Y-37069248D01*
X178962356Y-37139628D01*
X178920955Y-37194443D01*
X178876228Y-37294076D01*
X178855467Y-37409555D01*
X178861025Y-37516899D01*
X178883443Y-37576964D01*
X178889823Y-37600535D01*
X178866035Y-37616177D01*
X178802288Y-37627095D01*
X178705187Y-37635355D01*
X178597041Y-37644399D01*
X178531975Y-37656961D01*
X178494768Y-37679819D01*
X178470199Y-37719751D01*
X178459319Y-37744838D01*
X178419572Y-37839723D01*
X179096955Y-37839614D01*
G36*
X178882340Y-39025824D02*
G01*
X178959153Y-39030279D01*
X179075891Y-39033771D01*
X179223321Y-39036015D01*
X179377955Y-39036735D01*
X179901227Y-39036735D01*
X179993617Y-38944345D01*
X180050547Y-38880678D01*
X180073607Y-38824789D01*
X180072147Y-38748402D01*
X180068434Y-38718080D01*
X180057626Y-38623310D01*
X180051433Y-38544922D01*
X180050861Y-38525815D01*
X180054602Y-38461399D01*
X180063994Y-38369271D01*
X180068434Y-38333550D01*
X180075301Y-38245814D01*
X180060385Y-38186853D01*
X180014335Y-38128390D01*
X179993617Y-38107285D01*
X179901227Y-38014895D01*
X178922447Y-38014895D01*
X178888566Y-38089258D01*
X178863470Y-38153290D01*
X178854684Y-38190752D01*
X178882450Y-38200357D01*
X178960030Y-38209335D01*
X179078848Y-38217086D01*
X179230328Y-38223014D01*
X179358305Y-38225873D01*
X179861925Y-38233861D01*
X179871778Y-38303548D01*
X179864889Y-38366929D01*
X179842583Y-38397986D01*
X179800879Y-38406667D01*
X179712044Y-38414078D01*
X179587334Y-38419631D01*
X179438007Y-38422736D01*
X179361161Y-38423184D01*
X178918787Y-38423631D01*
X178886735Y-38515574D01*
X178864943Y-38580649D01*
X178854781Y-38616047D01*
X178854684Y-38617068D01*
X178882309Y-38620620D01*
X178958911Y-38624523D01*
X179075079Y-38628451D01*
X179221404Y-38632076D01*
X179358305Y-38634608D01*
X179861925Y-38642597D01*
X179861925Y-38817769D01*
X179402465Y-38825807D01*
X178943005Y-38833846D01*
X178898844Y-38919243D01*
X178868519Y-38982293D01*
X178854758Y-39019610D01*
X178854684Y-39020687D01*
X178882340Y-39025824D01*
G37*
X178882340Y-39025824D02*
X178959153Y-39030279D01*
X179075891Y-39033771D01*
X179223321Y-39036015D01*
X179377955Y-39036735D01*
X179901227Y-39036735D01*
X179993617Y-38944345D01*
X180050547Y-38880678D01*
X180073607Y-38824789D01*
X180072147Y-38748402D01*
X180068434Y-38718080D01*
X180057626Y-38623310D01*
X180051433Y-38544922D01*
X180050861Y-38525815D01*
X180054602Y-38461399D01*
X180063994Y-38369271D01*
X180068434Y-38333550D01*
X180075301Y-38245814D01*
X180060385Y-38186853D01*
X180014335Y-38128390D01*
X179993617Y-38107285D01*
X179901227Y-38014895D01*
X178922447Y-38014895D01*
X178888566Y-38089258D01*
X178863470Y-38153290D01*
X178854684Y-38190752D01*
X178882450Y-38200357D01*
X178960030Y-38209335D01*
X179078848Y-38217086D01*
X179230328Y-38223014D01*
X179358305Y-38225873D01*
X179861925Y-38233861D01*
X179871778Y-38303548D01*
X179864889Y-38366929D01*
X179842583Y-38397986D01*
X179800879Y-38406667D01*
X179712044Y-38414078D01*
X179587334Y-38419631D01*
X179438007Y-38422736D01*
X179361161Y-38423184D01*
X178918787Y-38423631D01*
X178886735Y-38515574D01*
X178864943Y-38580649D01*
X178854781Y-38616047D01*
X178854684Y-38617068D01*
X178882309Y-38620620D01*
X178958911Y-38624523D01*
X179075079Y-38628451D01*
X179221404Y-38632076D01*
X179358305Y-38634608D01*
X179861925Y-38642597D01*
X179861925Y-38817769D01*
X179402465Y-38825807D01*
X178943005Y-38833846D01*
X178898844Y-38919243D01*
X178868519Y-38982293D01*
X178854758Y-39019610D01*
X178854684Y-39020687D01*
X178882340Y-39025824D01*
G36*
X178877656Y-39760106D02*
G01*
X178915893Y-39844169D01*
X178962226Y-39910150D01*
X179014032Y-39958494D01*
X179080863Y-39991872D01*
X179172269Y-40012953D01*
X179297801Y-40024407D01*
X179467008Y-40028903D01*
X179578433Y-40029378D01*
X180013127Y-40029378D01*
X180047009Y-39955016D01*
X180071772Y-39896446D01*
X180080891Y-39867430D01*
X180053757Y-39861879D01*
X179980594Y-39857475D01*
X179873763Y-39854778D01*
X179788937Y-39854206D01*
X179666387Y-39851746D01*
X179569168Y-39845112D01*
X179509634Y-39835426D01*
X179496983Y-39827732D01*
X179509902Y-39776011D01*
X179543039Y-39694817D01*
X179587961Y-39600802D01*
X179636235Y-39510617D01*
X179679428Y-39440915D01*
X179709108Y-39408348D01*
X179709429Y-39408219D01*
X179764357Y-39411020D01*
X179816792Y-39436139D01*
X179859381Y-39480241D01*
X179873626Y-39544609D01*
X179871966Y-39599621D01*
X179870745Y-39677535D01*
X179888998Y-39718432D01*
X179937226Y-39742995D01*
X179946320Y-39746092D01*
X180015098Y-39756740D01*
X180056860Y-39728265D01*
X180076763Y-39654044D01*
X180080444Y-39573868D01*
X180053158Y-39429590D01*
X180014190Y-39354903D01*
X179922648Y-39262663D01*
X179810282Y-39213743D01*
X179691551Y-39209354D01*
X179580911Y-39250701D01*
X179511580Y-39312897D01*
X179472765Y-39374994D01*
X179423625Y-39472595D01*
X179373792Y-39586332D01*
X179366177Y-39605290D01*
X179311045Y-39730221D01*
X179262454Y-39802239D01*
X179214147Y-39825400D01*
X179159870Y-39803764D01*
X179117443Y-39766620D01*
X179065202Y-39678827D01*
X179061284Y-39582230D01*
X179101541Y-39493644D01*
X179181826Y-39429886D01*
X179202540Y-39421517D01*
X179278725Y-39372796D01*
X179335285Y-39301665D01*
X179381701Y-39211907D01*
X179250084Y-39211907D01*
X179169668Y-39217190D01*
X179106286Y-39239842D01*
X179038663Y-39290067D01*
X178986576Y-39338282D01*
X178912822Y-39413254D01*
X178873202Y-39471506D01*
X178857310Y-39534072D01*
X178854684Y-39604893D01*
X178877656Y-39760106D01*
G37*
X178877656Y-39760106D02*
X178915893Y-39844169D01*
X178962226Y-39910150D01*
X179014032Y-39958494D01*
X179080863Y-39991872D01*
X179172269Y-40012953D01*
X179297801Y-40024407D01*
X179467008Y-40028903D01*
X179578433Y-40029378D01*
X180013127Y-40029378D01*
X180047009Y-39955016D01*
X180071772Y-39896446D01*
X180080891Y-39867430D01*
X180053757Y-39861879D01*
X179980594Y-39857475D01*
X179873763Y-39854778D01*
X179788937Y-39854206D01*
X179666387Y-39851746D01*
X179569168Y-39845112D01*
X179509634Y-39835426D01*
X179496983Y-39827732D01*
X179509902Y-39776011D01*
X179543039Y-39694817D01*
X179587961Y-39600802D01*
X179636235Y-39510617D01*
X179679428Y-39440915D01*
X179709108Y-39408348D01*
X179709429Y-39408219D01*
X179764357Y-39411020D01*
X179816792Y-39436139D01*
X179859381Y-39480241D01*
X179873626Y-39544609D01*
X179871966Y-39599621D01*
X179870745Y-39677535D01*
X179888998Y-39718432D01*
X179937226Y-39742995D01*
X179946320Y-39746092D01*
X180015098Y-39756740D01*
X180056860Y-39728265D01*
X180076763Y-39654044D01*
X180080444Y-39573868D01*
X180053158Y-39429590D01*
X180014190Y-39354903D01*
X179922648Y-39262663D01*
X179810282Y-39213743D01*
X179691551Y-39209354D01*
X179580911Y-39250701D01*
X179511580Y-39312897D01*
X179472765Y-39374994D01*
X179423625Y-39472595D01*
X179373792Y-39586332D01*
X179366177Y-39605290D01*
X179311045Y-39730221D01*
X179262454Y-39802239D01*
X179214147Y-39825400D01*
X179159870Y-39803764D01*
X179117443Y-39766620D01*
X179065202Y-39678827D01*
X179061284Y-39582230D01*
X179101541Y-39493644D01*
X179181826Y-39429886D01*
X179202540Y-39421517D01*
X179278725Y-39372796D01*
X179335285Y-39301665D01*
X179381701Y-39211907D01*
X179250084Y-39211907D01*
X179169668Y-39217190D01*
X179106286Y-39239842D01*
X179038663Y-39290067D01*
X178986576Y-39338282D01*
X178912822Y-39413254D01*
X178873202Y-39471506D01*
X178857310Y-39534072D01*
X178854684Y-39604893D01*
X178877656Y-39760106D01*
G36*
X178882518Y-40781390D02*
G01*
X178897769Y-40816285D01*
X178963735Y-40899577D01*
X179059118Y-40970803D01*
X179160906Y-41014853D01*
X179211087Y-41022022D01*
X179281147Y-40997985D01*
X179318217Y-40945261D01*
X179340664Y-40888731D01*
X179344800Y-40862846D01*
X179314783Y-40850242D01*
X179249461Y-40825354D01*
X179219945Y-40814435D01*
X179117848Y-40753208D01*
X179066923Y-40664561D01*
X179068489Y-40550893D01*
X179070494Y-40542474D01*
X179099267Y-40481788D01*
X179155359Y-40437174D01*
X179245663Y-40406702D01*
X179377071Y-40388444D01*
X179556474Y-40380471D01*
X179651933Y-40379723D01*
X179802413Y-40379352D01*
X179904995Y-40376923D01*
X179970172Y-40370460D01*
X180008438Y-40357988D01*
X180030285Y-40337533D01*
X180046207Y-40307119D01*
X180047009Y-40305361D01*
X180071772Y-40246791D01*
X180080891Y-40217775D01*
X180053322Y-40213316D01*
X179977120Y-40209499D01*
X179862041Y-40206599D01*
X179717841Y-40204891D01*
X179612314Y-40204551D01*
X179408113Y-40206288D01*
X179253197Y-40213082D01*
X179138524Y-40227307D01*
X179055051Y-40251338D01*
X178993736Y-40287548D01*
X178945534Y-40338312D01*
X178911893Y-40388439D01*
X178867119Y-40508975D01*
X178857021Y-40649257D01*
X178882518Y-40781390D01*
G37*
X178882518Y-40781390D02*
X178897769Y-40816285D01*
X178963735Y-40899577D01*
X179059118Y-40970803D01*
X179160906Y-41014853D01*
X179211087Y-41022022D01*
X179281147Y-40997985D01*
X179318217Y-40945261D01*
X179340664Y-40888731D01*
X179344800Y-40862846D01*
X179314783Y-40850242D01*
X179249461Y-40825354D01*
X179219945Y-40814435D01*
X179117848Y-40753208D01*
X179066923Y-40664561D01*
X179068489Y-40550893D01*
X179070494Y-40542474D01*
X179099267Y-40481788D01*
X179155359Y-40437174D01*
X179245663Y-40406702D01*
X179377071Y-40388444D01*
X179556474Y-40380471D01*
X179651933Y-40379723D01*
X179802413Y-40379352D01*
X179904995Y-40376923D01*
X179970172Y-40370460D01*
X180008438Y-40357988D01*
X180030285Y-40337533D01*
X180046207Y-40307119D01*
X180047009Y-40305361D01*
X180071772Y-40246791D01*
X180080891Y-40217775D01*
X180053322Y-40213316D01*
X179977120Y-40209499D01*
X179862041Y-40206599D01*
X179717841Y-40204891D01*
X179612314Y-40204551D01*
X179408113Y-40206288D01*
X179253197Y-40213082D01*
X179138524Y-40227307D01*
X179055051Y-40251338D01*
X178993736Y-40287548D01*
X178945534Y-40338312D01*
X178911893Y-40388439D01*
X178867119Y-40508975D01*
X178857021Y-40649257D01*
X178882518Y-40781390D01*
G36*
X178899040Y-41789139D02*
G01*
X178974534Y-41904650D01*
X179042117Y-41960364D01*
X179164755Y-42004504D01*
X179261798Y-42008009D01*
X179391556Y-42000068D01*
X179522539Y-41700815D01*
X179589458Y-41555311D01*
X179643290Y-41460237D01*
X179689916Y-41410801D01*
X179735220Y-41402211D01*
X179785082Y-41429672D01*
X179818132Y-41459953D01*
X179871133Y-41548063D01*
X179874847Y-41643896D01*
X179833541Y-41731912D01*
X179751483Y-41796569D01*
X179722508Y-41808133D01*
X179632009Y-41863525D01*
X179593440Y-41927253D01*
X179560446Y-42014666D01*
X179685534Y-42014666D01*
X179770656Y-42006938D01*
X179842438Y-41976666D01*
X179924856Y-41913218D01*
X179935566Y-41903788D01*
X180008891Y-41833213D01*
X180048242Y-41772547D01*
X180066345Y-41696650D01*
X180072274Y-41633730D01*
X180073751Y-41521187D01*
X180055035Y-41441070D01*
X180027247Y-41391090D01*
X179966141Y-41312538D01*
X179900054Y-41258163D01*
X179816941Y-41223752D01*
X179704754Y-41205088D01*
X179551446Y-41197956D01*
X179473636Y-41197387D01*
X179380353Y-41199322D01*
X179380353Y-41375599D01*
X179430396Y-41377644D01*
X179438592Y-41382739D01*
X179427458Y-41416366D01*
X179397993Y-41488730D01*
X179356101Y-41585447D01*
X179347097Y-41605673D01*
X179284942Y-41727903D01*
X179230315Y-41795247D01*
X179179149Y-41810048D01*
X179127376Y-41774647D01*
X179104500Y-41745411D01*
X179058750Y-41639916D01*
X179066308Y-41541176D01*
X179122151Y-41458512D01*
X179221253Y-41401248D01*
X179299914Y-41382888D01*
X179380353Y-41375599D01*
X179380353Y-41199322D01*
X179291851Y-41201159D01*
X179157353Y-41215059D01*
X179059416Y-41242594D01*
X178987311Y-41287272D01*
X178930313Y-41352601D01*
X178911893Y-41381083D01*
X178863922Y-41510463D01*
X178860903Y-41652112D01*
X178899040Y-41789139D01*
G37*
X178899040Y-41789139D02*
X178974534Y-41904650D01*
X179042117Y-41960364D01*
X179164755Y-42004504D01*
X179261798Y-42008009D01*
X179391556Y-42000068D01*
X179522539Y-41700815D01*
X179589458Y-41555311D01*
X179643290Y-41460237D01*
X179689916Y-41410801D01*
X179735220Y-41402211D01*
X179785082Y-41429672D01*
X179818132Y-41459953D01*
X179871133Y-41548063D01*
X179874847Y-41643896D01*
X179833541Y-41731912D01*
X179751483Y-41796569D01*
X179722508Y-41808133D01*
X179632009Y-41863525D01*
X179593440Y-41927253D01*
X179560446Y-42014666D01*
X179685534Y-42014666D01*
X179770656Y-42006938D01*
X179842438Y-41976666D01*
X179924856Y-41913218D01*
X179935566Y-41903788D01*
X180008891Y-41833213D01*
X180048242Y-41772547D01*
X180066345Y-41696650D01*
X180072274Y-41633730D01*
X180073751Y-41521187D01*
X180055035Y-41441070D01*
X180027247Y-41391090D01*
X179966141Y-41312538D01*
X179900054Y-41258163D01*
X179816941Y-41223752D01*
X179704754Y-41205088D01*
X179551446Y-41197956D01*
X179473636Y-41197387D01*
X179380353Y-41199322D01*
X179380353Y-41375599D01*
X179430396Y-41377644D01*
X179438592Y-41382739D01*
X179427458Y-41416366D01*
X179397993Y-41488730D01*
X179356101Y-41585447D01*
X179347097Y-41605673D01*
X179284942Y-41727903D01*
X179230315Y-41795247D01*
X179179149Y-41810048D01*
X179127376Y-41774647D01*
X179104500Y-41745411D01*
X179058750Y-41639916D01*
X179066308Y-41541176D01*
X179122151Y-41458512D01*
X179221253Y-41401248D01*
X179299914Y-41382888D01*
X179380353Y-41375599D01*
X179380353Y-41199322D01*
X179291851Y-41201159D01*
X179157353Y-41215059D01*
X179059416Y-41242594D01*
X178987311Y-41287272D01*
X178930313Y-41352601D01*
X178911893Y-41381083D01*
X178863922Y-41510463D01*
X178860903Y-41652112D01*
X178899040Y-41789139D01*
G36*
X169395498Y-35654714D02*
G01*
X169396363Y-35812706D01*
X169398705Y-35927047D01*
X169403262Y-36005107D01*
X169410770Y-36054254D01*
X169421966Y-36081859D01*
X169437588Y-36095292D01*
X169458373Y-36101921D01*
X169461063Y-36102565D01*
X169509613Y-36112635D01*
X169605405Y-36131275D01*
X169738243Y-36156545D01*
X169897931Y-36186507D01*
X170074274Y-36219222D01*
X170080467Y-36220364D01*
X170253282Y-36253133D01*
X170405969Y-36283793D01*
X170529371Y-36310364D01*
X170614331Y-36330867D01*
X170651690Y-36343326D01*
X170652352Y-36343920D01*
X170670595Y-36380619D01*
X170700997Y-36456286D01*
X170736993Y-36554578D01*
X170737185Y-36555125D01*
X170783722Y-36678933D01*
X170843004Y-36824896D01*
X170902609Y-36962481D01*
X170905556Y-36968993D01*
X171007265Y-37193090D01*
X170668397Y-37689319D01*
X170565092Y-37841546D01*
X170472737Y-37979441D01*
X170396584Y-38095015D01*
X170341885Y-38180279D01*
X170313893Y-38227244D01*
X170311817Y-38231704D01*
X170321060Y-38265834D01*
X170365656Y-38329581D01*
X170447709Y-38425431D01*
X170569321Y-38555869D01*
X170698705Y-38689028D01*
X170826202Y-38817394D01*
X170942546Y-38932281D01*
X171040552Y-39026773D01*
X171113036Y-39093953D01*
X171152813Y-39126906D01*
X171154861Y-39128132D01*
X171182156Y-39131774D01*
X171226734Y-39118050D01*
X171294612Y-39083569D01*
X171391811Y-39024939D01*
X171524351Y-38938770D01*
X171694976Y-38823900D01*
X171845155Y-38721954D01*
X171979850Y-38630823D01*
X172091240Y-38555773D01*
X172171505Y-38502069D01*
X172212825Y-38474980D01*
X172215630Y-38473274D01*
X172255221Y-38476582D01*
X172332169Y-38501653D01*
X172431932Y-38543498D01*
X172463791Y-38558412D01*
X172605726Y-38623486D01*
X172766773Y-38692912D01*
X172906121Y-38749309D01*
X173009544Y-38789947D01*
X173088142Y-38822226D01*
X173129220Y-38840878D01*
X173132385Y-38843197D01*
X173137628Y-38877503D01*
X173151994Y-38958369D01*
X173173437Y-39075043D01*
X173199913Y-39216775D01*
X173229377Y-39372810D01*
X173259783Y-39532398D01*
X173289088Y-39684785D01*
X173315245Y-39819221D01*
X173336210Y-39924952D01*
X173349939Y-39991226D01*
X173353820Y-40007482D01*
X173363400Y-40024273D01*
X173385036Y-40036949D01*
X173426031Y-40046078D01*
X173493689Y-40052231D01*
X173595312Y-40055980D01*
X173738203Y-40057892D01*
X173929665Y-40058540D01*
X174008145Y-40058574D01*
X174646406Y-40058574D01*
X174676660Y-39905298D01*
X174693064Y-39820022D01*
X174717009Y-39692770D01*
X174745607Y-39539015D01*
X174775967Y-39374234D01*
X174784306Y-39328689D01*
X174813870Y-39176632D01*
X174842942Y-39044168D01*
X174868829Y-38942414D01*
X174888837Y-38882488D01*
X174894801Y-38872505D01*
X174937034Y-38847993D01*
X175018870Y-38812848D01*
X175124183Y-38773873D01*
X175146868Y-38766142D01*
X175287518Y-38715060D01*
X175446214Y-38651654D01*
X175588725Y-38589604D01*
X175589386Y-38589298D01*
X175812940Y-38485967D01*
X176812732Y-39165661D01*
X177249800Y-38729321D01*
X177379881Y-38597349D01*
X177494548Y-38476979D01*
X177587681Y-38374973D01*
X177653158Y-38298091D01*
X177684857Y-38253093D01*
X177686868Y-38246638D01*
X177671029Y-38208740D01*
X177626996Y-38131408D01*
X177559990Y-38023089D01*
X177475234Y-37892232D01*
X177380316Y-37750752D01*
X177283498Y-37607161D01*
X177199251Y-37479135D01*
X177132758Y-37374805D01*
X177089202Y-37302300D01*
X177073764Y-37269858D01*
X177086828Y-37230276D01*
X177121250Y-37155219D01*
X177169880Y-37060168D01*
X177175285Y-37050092D01*
X177239480Y-36922091D01*
X177270963Y-36834318D01*
X177271298Y-36779728D01*
X177242048Y-36751275D01*
X177241638Y-36751110D01*
X177206998Y-36736888D01*
X177124769Y-36702969D01*
X177001314Y-36651984D01*
X176842998Y-36586562D01*
X176656186Y-36509334D01*
X176447242Y-36422929D01*
X176244946Y-36339251D01*
X176021700Y-36247288D01*
X175814892Y-36162850D01*
X175630862Y-36088469D01*
X175475951Y-36026674D01*
X175356496Y-35979997D01*
X175278839Y-35950968D01*
X175249856Y-35942022D01*
X175216610Y-35964456D01*
X175163623Y-36023139D01*
X175105204Y-36101389D01*
X174920452Y-36324234D01*
X174708682Y-36498418D01*
X174474356Y-36621854D01*
X174221934Y-36692454D01*
X173955877Y-36708131D01*
X173833075Y-36696736D01*
X173578293Y-36634650D01*
X173353301Y-36527723D01*
X173160317Y-36382589D01*
X173001561Y-36205878D01*
X172879250Y-36004222D01*
X172795605Y-35784254D01*
X172752844Y-35552606D01*
X172753187Y-35315909D01*
X172798852Y-35080795D01*
X172892059Y-34853896D01*
X173035027Y-34641844D01*
X173115883Y-34553336D01*
X173323507Y-34383589D01*
X173550395Y-34265399D01*
X173789933Y-34197978D01*
X174035507Y-34180540D01*
X174280503Y-34212298D01*
X174518308Y-34292465D01*
X174742307Y-34420255D01*
X174945887Y-34594880D01*
X175105204Y-34790012D01*
X175166102Y-34871291D01*
X175218515Y-34928709D01*
X175249906Y-34949378D01*
X175284139Y-34938556D01*
X175365919Y-34907777D01*
X175488907Y-34859574D01*
X175646763Y-34796478D01*
X175833149Y-34721022D01*
X176041726Y-34635738D01*
X176244996Y-34551919D01*
X176468433Y-34459445D01*
X176675484Y-34373789D01*
X176859786Y-34297582D01*
X177014975Y-34233453D01*
X177134688Y-34184032D01*
X177212561Y-34151948D01*
X177241638Y-34140059D01*
X177271177Y-34111974D01*
X177271091Y-34057649D01*
X177239826Y-33970095D01*
X177175829Y-33842319D01*
X177175285Y-33841308D01*
X177125621Y-33745102D01*
X177089445Y-33667331D01*
X177073908Y-33623477D01*
X177073764Y-33621542D01*
X177089524Y-33588529D01*
X177133350Y-33515646D01*
X177200057Y-33411022D01*
X177284464Y-33282790D01*
X177380316Y-33140648D01*
X177477367Y-32995933D01*
X177561770Y-32865504D01*
X177628301Y-32757810D01*
X177671738Y-32681298D01*
X177686868Y-32644762D01*
X177666982Y-32611118D01*
X177611403Y-32543476D01*
X177526254Y-32448593D01*
X177417653Y-32333230D01*
X177291721Y-32204145D01*
X177249649Y-32161929D01*
X176812431Y-31725439D01*
X176324840Y-32057677D01*
X176175105Y-32158646D01*
X176040720Y-32247262D01*
X175929469Y-32318554D01*
X175849139Y-32367550D01*
X175807514Y-32389278D01*
X175804553Y-32389915D01*
X175765318Y-32378460D01*
X175686395Y-32347649D01*
X175581009Y-32302816D01*
X175510454Y-32271347D01*
X175375376Y-32212508D01*
X175238909Y-32157096D01*
X175123603Y-32114136D01*
X175088477Y-32102466D01*
X174994674Y-32069311D01*
X174922194Y-32036901D01*
X174894801Y-32019099D01*
X174878036Y-31979814D01*
X174854270Y-31894074D01*
X174826197Y-31773003D01*
X174796509Y-31627727D01*
X174784306Y-31562712D01*
X174753968Y-31397613D01*
X174724593Y-31239252D01*
X174699069Y-31103104D01*
X174680285Y-31004643D01*
X174676660Y-30986102D01*
X174646406Y-30832827D01*
X174008145Y-30832827D01*
X173798270Y-30833171D01*
X173639480Y-30834584D01*
X173524473Y-30837636D01*
X173445946Y-30842897D01*
X173396596Y-30850937D01*
X173369119Y-30862327D01*
X173356213Y-30877637D01*
X173353820Y-30883918D01*
X173345333Y-30921804D01*
X173328400Y-31005505D01*
X173305066Y-31124267D01*
X173277375Y-31267339D01*
X173247373Y-31423968D01*
X173217104Y-31583403D01*
X173188615Y-31734891D01*
X173163949Y-31867681D01*
X173145151Y-31971019D01*
X173134267Y-32034155D01*
X173132385Y-32048203D01*
X173107204Y-32060930D01*
X173040122Y-32089100D01*
X172943833Y-32127448D01*
X172906121Y-32142091D01*
X172760421Y-32201152D01*
X172599451Y-32270700D01*
X172463791Y-32332988D01*
X172360061Y-32378821D01*
X172274826Y-32409313D01*
X172222626Y-32419492D01*
X172215630Y-32417869D01*
X172182602Y-32396357D01*
X172109143Y-32347235D01*
X172003077Y-32275777D01*
X171872226Y-32187255D01*
X171724412Y-32086941D01*
X171695234Y-32067106D01*
X171522363Y-31950712D01*
X171390726Y-31865152D01*
X171294261Y-31807016D01*
X171226908Y-31772892D01*
X171182606Y-31759369D01*
X171155294Y-31763036D01*
X171155120Y-31763130D01*
X171119246Y-31791993D01*
X171049891Y-31855833D01*
X170954245Y-31947731D01*
X170839499Y-32060767D01*
X170712841Y-32188021D01*
X170698705Y-32202372D01*
X170543403Y-32362743D01*
X170429370Y-32486505D01*
X170354502Y-32576145D01*
X170316696Y-32634148D01*
X170311817Y-32659696D01*
X170333103Y-32696982D01*
X170382273Y-32774357D01*
X170454075Y-32883833D01*
X170543255Y-33017420D01*
X170644563Y-33167130D01*
X170668397Y-33202082D01*
X171007265Y-33698310D01*
X170905556Y-33922407D01*
X170846283Y-34058689D01*
X170786670Y-34204976D01*
X170739140Y-34330735D01*
X170737185Y-34336275D01*
X170701177Y-34434643D01*
X170670729Y-34510471D01*
X170652405Y-34547418D01*
X170652352Y-34547480D01*
X170619229Y-34559204D01*
X170537767Y-34579132D01*
X170417125Y-34605287D01*
X170266459Y-34635690D01*
X170094928Y-34668363D01*
X170080467Y-34671036D01*
X169903735Y-34703810D01*
X169743310Y-34733898D01*
X169609388Y-34759361D01*
X169512163Y-34778259D01*
X169461832Y-34788653D01*
X169461063Y-34788835D01*
X169439653Y-34795161D01*
X169423488Y-34807461D01*
X169411831Y-34833106D01*
X169403945Y-34879465D01*
X169399093Y-34953908D01*
X169396539Y-35063805D01*
X169395545Y-35216525D01*
X169395374Y-35419438D01*
X169395374Y-35445700D01*
X169395498Y-35654714D01*
G37*
X169395498Y-35654714D02*
X169396363Y-35812706D01*
X169398705Y-35927047D01*
X169403262Y-36005107D01*
X169410770Y-36054254D01*
X169421966Y-36081859D01*
X169437588Y-36095292D01*
X169458373Y-36101921D01*
X169461063Y-36102565D01*
X169509613Y-36112635D01*
X169605405Y-36131275D01*
X169738243Y-36156545D01*
X169897931Y-36186507D01*
X170074274Y-36219222D01*
X170080467Y-36220364D01*
X170253282Y-36253133D01*
X170405969Y-36283793D01*
X170529371Y-36310364D01*
X170614331Y-36330867D01*
X170651690Y-36343326D01*
X170652352Y-36343920D01*
X170670595Y-36380619D01*
X170700997Y-36456286D01*
X170736993Y-36554578D01*
X170737185Y-36555125D01*
X170783722Y-36678933D01*
X170843004Y-36824896D01*
X170902609Y-36962481D01*
X170905556Y-36968993D01*
X171007265Y-37193090D01*
X170668397Y-37689319D01*
X170565092Y-37841546D01*
X170472737Y-37979441D01*
X170396584Y-38095015D01*
X170341885Y-38180279D01*
X170313893Y-38227244D01*
X170311817Y-38231704D01*
X170321060Y-38265834D01*
X170365656Y-38329581D01*
X170447709Y-38425431D01*
X170569321Y-38555869D01*
X170698705Y-38689028D01*
X170826202Y-38817394D01*
X170942546Y-38932281D01*
X171040552Y-39026773D01*
X171113036Y-39093953D01*
X171152813Y-39126906D01*
X171154861Y-39128132D01*
X171182156Y-39131774D01*
X171226734Y-39118050D01*
X171294612Y-39083569D01*
X171391811Y-39024939D01*
X171524351Y-38938770D01*
X171694976Y-38823900D01*
X171845155Y-38721954D01*
X171979850Y-38630823D01*
X172091240Y-38555773D01*
X172171505Y-38502069D01*
X172212825Y-38474980D01*
X172215630Y-38473274D01*
X172255221Y-38476582D01*
X172332169Y-38501653D01*
X172431932Y-38543498D01*
X172463791Y-38558412D01*
X172605726Y-38623486D01*
X172766773Y-38692912D01*
X172906121Y-38749309D01*
X173009544Y-38789947D01*
X173088142Y-38822226D01*
X173129220Y-38840878D01*
X173132385Y-38843197D01*
X173137628Y-38877503D01*
X173151994Y-38958369D01*
X173173437Y-39075043D01*
X173199913Y-39216775D01*
X173229377Y-39372810D01*
X173259783Y-39532398D01*
X173289088Y-39684785D01*
X173315245Y-39819221D01*
X173336210Y-39924952D01*
X173349939Y-39991226D01*
X173353820Y-40007482D01*
X173363400Y-40024273D01*
X173385036Y-40036949D01*
X173426031Y-40046078D01*
X173493689Y-40052231D01*
X173595312Y-40055980D01*
X173738203Y-40057892D01*
X173929665Y-40058540D01*
X174008145Y-40058574D01*
X174646406Y-40058574D01*
X174676660Y-39905298D01*
X174693064Y-39820022D01*
X174717009Y-39692770D01*
X174745607Y-39539015D01*
X174775967Y-39374234D01*
X174784306Y-39328689D01*
X174813870Y-39176632D01*
X174842942Y-39044168D01*
X174868829Y-38942414D01*
X174888837Y-38882488D01*
X174894801Y-38872505D01*
X174937034Y-38847993D01*
X175018870Y-38812848D01*
X175124183Y-38773873D01*
X175146868Y-38766142D01*
X175287518Y-38715060D01*
X175446214Y-38651654D01*
X175588725Y-38589604D01*
X175589386Y-38589298D01*
X175812940Y-38485967D01*
X176812732Y-39165661D01*
X177249800Y-38729321D01*
X177379881Y-38597349D01*
X177494548Y-38476979D01*
X177587681Y-38374973D01*
X177653158Y-38298091D01*
X177684857Y-38253093D01*
X177686868Y-38246638D01*
X177671029Y-38208740D01*
X177626996Y-38131408D01*
X177559990Y-38023089D01*
X177475234Y-37892232D01*
X177380316Y-37750752D01*
X177283498Y-37607161D01*
X177199251Y-37479135D01*
X177132758Y-37374805D01*
X177089202Y-37302300D01*
X177073764Y-37269858D01*
X177086828Y-37230276D01*
X177121250Y-37155219D01*
X177169880Y-37060168D01*
X177175285Y-37050092D01*
X177239480Y-36922091D01*
X177270963Y-36834318D01*
X177271298Y-36779728D01*
X177242048Y-36751275D01*
X177241638Y-36751110D01*
X177206998Y-36736888D01*
X177124769Y-36702969D01*
X177001314Y-36651984D01*
X176842998Y-36586562D01*
X176656186Y-36509334D01*
X176447242Y-36422929D01*
X176244946Y-36339251D01*
X176021700Y-36247288D01*
X175814892Y-36162850D01*
X175630862Y-36088469D01*
X175475951Y-36026674D01*
X175356496Y-35979997D01*
X175278839Y-35950968D01*
X175249856Y-35942022D01*
X175216610Y-35964456D01*
X175163623Y-36023139D01*
X175105204Y-36101389D01*
X174920452Y-36324234D01*
X174708682Y-36498418D01*
X174474356Y-36621854D01*
X174221934Y-36692454D01*
X173955877Y-36708131D01*
X173833075Y-36696736D01*
X173578293Y-36634650D01*
X173353301Y-36527723D01*
X173160317Y-36382589D01*
X173001561Y-36205878D01*
X172879250Y-36004222D01*
X172795605Y-35784254D01*
X172752844Y-35552606D01*
X172753187Y-35315909D01*
X172798852Y-35080795D01*
X172892059Y-34853896D01*
X173035027Y-34641844D01*
X173115883Y-34553336D01*
X173323507Y-34383589D01*
X173550395Y-34265399D01*
X173789933Y-34197978D01*
X174035507Y-34180540D01*
X174280503Y-34212298D01*
X174518308Y-34292465D01*
X174742307Y-34420255D01*
X174945887Y-34594880D01*
X175105204Y-34790012D01*
X175166102Y-34871291D01*
X175218515Y-34928709D01*
X175249906Y-34949378D01*
X175284139Y-34938556D01*
X175365919Y-34907777D01*
X175488907Y-34859574D01*
X175646763Y-34796478D01*
X175833149Y-34721022D01*
X176041726Y-34635738D01*
X176244996Y-34551919D01*
X176468433Y-34459445D01*
X176675484Y-34373789D01*
X176859786Y-34297582D01*
X177014975Y-34233453D01*
X177134688Y-34184032D01*
X177212561Y-34151948D01*
X177241638Y-34140059D01*
X177271177Y-34111974D01*
X177271091Y-34057649D01*
X177239826Y-33970095D01*
X177175829Y-33842319D01*
X177175285Y-33841308D01*
X177125621Y-33745102D01*
X177089445Y-33667331D01*
X177073908Y-33623477D01*
X177073764Y-33621542D01*
X177089524Y-33588529D01*
X177133350Y-33515646D01*
X177200057Y-33411022D01*
X177284464Y-33282790D01*
X177380316Y-33140648D01*
X177477367Y-32995933D01*
X177561770Y-32865504D01*
X177628301Y-32757810D01*
X177671738Y-32681298D01*
X177686868Y-32644762D01*
X177666982Y-32611118D01*
X177611403Y-32543476D01*
X177526254Y-32448593D01*
X177417653Y-32333230D01*
X177291721Y-32204145D01*
X177249649Y-32161929D01*
X176812431Y-31725439D01*
X176324840Y-32057677D01*
X176175105Y-32158646D01*
X176040720Y-32247262D01*
X175929469Y-32318554D01*
X175849139Y-32367550D01*
X175807514Y-32389278D01*
X175804553Y-32389915D01*
X175765318Y-32378460D01*
X175686395Y-32347649D01*
X175581009Y-32302816D01*
X175510454Y-32271347D01*
X175375376Y-32212508D01*
X175238909Y-32157096D01*
X175123603Y-32114136D01*
X175088477Y-32102466D01*
X174994674Y-32069311D01*
X174922194Y-32036901D01*
X174894801Y-32019099D01*
X174878036Y-31979814D01*
X174854270Y-31894074D01*
X174826197Y-31773003D01*
X174796509Y-31627727D01*
X174784306Y-31562712D01*
X174753968Y-31397613D01*
X174724593Y-31239252D01*
X174699069Y-31103104D01*
X174680285Y-31004643D01*
X174676660Y-30986102D01*
X174646406Y-30832827D01*
X174008145Y-30832827D01*
X173798270Y-30833171D01*
X173639480Y-30834584D01*
X173524473Y-30837636D01*
X173445946Y-30842897D01*
X173396596Y-30850937D01*
X173369119Y-30862327D01*
X173356213Y-30877637D01*
X173353820Y-30883918D01*
X173345333Y-30921804D01*
X173328400Y-31005505D01*
X173305066Y-31124267D01*
X173277375Y-31267339D01*
X173247373Y-31423968D01*
X173217104Y-31583403D01*
X173188615Y-31734891D01*
X173163949Y-31867681D01*
X173145151Y-31971019D01*
X173134267Y-32034155D01*
X173132385Y-32048203D01*
X173107204Y-32060930D01*
X173040122Y-32089100D01*
X172943833Y-32127448D01*
X172906121Y-32142091D01*
X172760421Y-32201152D01*
X172599451Y-32270700D01*
X172463791Y-32332988D01*
X172360061Y-32378821D01*
X172274826Y-32409313D01*
X172222626Y-32419492D01*
X172215630Y-32417869D01*
X172182602Y-32396357D01*
X172109143Y-32347235D01*
X172003077Y-32275777D01*
X171872226Y-32187255D01*
X171724412Y-32086941D01*
X171695234Y-32067106D01*
X171522363Y-31950712D01*
X171390726Y-31865152D01*
X171294261Y-31807016D01*
X171226908Y-31772892D01*
X171182606Y-31759369D01*
X171155294Y-31763036D01*
X171155120Y-31763130D01*
X171119246Y-31791993D01*
X171049891Y-31855833D01*
X170954245Y-31947731D01*
X170839499Y-32060767D01*
X170712841Y-32188021D01*
X170698705Y-32202372D01*
X170543403Y-32362743D01*
X170429370Y-32486505D01*
X170354502Y-32576145D01*
X170316696Y-32634148D01*
X170311817Y-32659696D01*
X170333103Y-32696982D01*
X170382273Y-32774357D01*
X170454075Y-32883833D01*
X170543255Y-33017420D01*
X170644563Y-33167130D01*
X170668397Y-33202082D01*
X171007265Y-33698310D01*
X170905556Y-33922407D01*
X170846283Y-34058689D01*
X170786670Y-34204976D01*
X170739140Y-34330735D01*
X170737185Y-34336275D01*
X170701177Y-34434643D01*
X170670729Y-34510471D01*
X170652405Y-34547418D01*
X170652352Y-34547480D01*
X170619229Y-34559204D01*
X170537767Y-34579132D01*
X170417125Y-34605287D01*
X170266459Y-34635690D01*
X170094928Y-34668363D01*
X170080467Y-34671036D01*
X169903735Y-34703810D01*
X169743310Y-34733898D01*
X169609388Y-34759361D01*
X169512163Y-34778259D01*
X169461832Y-34788653D01*
X169461063Y-34788835D01*
X169439653Y-34795161D01*
X169423488Y-34807461D01*
X169411831Y-34833106D01*
X169403945Y-34879465D01*
X169399093Y-34953908D01*
X169396539Y-35063805D01*
X169395545Y-35216525D01*
X169395374Y-35419438D01*
X169395374Y-35445700D01*
X169395498Y-35654714D01*
%TD*%
M02*
